<?xml version="1.0" standalone="no"?>
<!DOCTYPE svg PUBLIC "-//W3C//DTD SVG 1.1//EN" "http://www.w3.org/Graphics/SVG/1.1/DTD/svg11.dtd" >
<svg>
<metadata>
Created by FontForge 20090622 at Fri Jan 18 21:40:44 2013
 By root
Copyright (c) 2011 by atipo. All rights reserved.
</metadata>
<defs>
<font id="Cassannet-Regular" horiz-adv-x="376" >
  <font-face 
    font-family="Cassannet Regular"
    font-weight="400"
    font-stretch="normal"
    units-per-em="1000"
    panose-1="2 0 5 3 0 0 0 2 0 3"
    ascent="750"
    descent="-250"
    x-height="470"
    cap-height="700"
    bbox="-33 -244 1477 945"
    underline-thickness="50"
    underline-position="-50"
    unicode-range="U+0020-U+FB02"
  />
<missing-glyph horiz-adv-x="397" 
 />
    <glyph glyph-name="ellipsis" unicode="&#x2e;&#x2e;&#x2e;" horiz-adv-x="736" 
d="M49 54q0 27 19.5 47t46.5 20t46.5 -20t19.5 -47q0 -28 -19.5 -47.5t-46.5 -19.5q-28 0 -47 19.5t-19 47.5zM302 54q0 27 19.5 47t46.5 20t46.5 -20t19.5 -47q0 -28 -19.5 -47.5t-46.5 -19.5q-28 0 -47 19.5t-19 47.5zM555 54q0 27 19.5 47t46.5 20t46.5 -20t19.5 -47
q0 -28 -19.5 -47.5t-46.5 -19.5q-28 0 -47 19.5t-19 47.5z" />
    <glyph glyph-name="fi" unicode="fi" horiz-adv-x="592" 
d="M60 0v470h278v-90h-182v-100h172v-88h-172v-192h-96zM436 0v470h96v-470h-96z" />
    <glyph glyph-name="fl" unicode="fl" horiz-adv-x="742" 
d="M60 0v470h278v-90h-182v-100h172v-88h-172v-192h-96zM436 0v470h96v-380h192v-90h-288z" />
    <glyph glyph-name="F_I" unicode="FI" horiz-adv-x="687" 
d="M75 0v700h316v-98h-214v-185h200v-96h-200v-321h-102zM510 0v700h102v-700h-102z" />
    <glyph glyph-name="F_L" unicode="FL" horiz-adv-x="830" 
d="M75 0v700h316v-98h-214v-185h200v-96h-200v-321h-102zM510 0v700h102v-600h194v-100h-296z" />
    <glyph glyph-name="F_F" unicode="FF" horiz-adv-x="892" 
d="M75 0v700h316v-98h-214v-185h200v-96h-200v-321h-102zM522 0v700h316v-98h-214v-185h200v-96h-200v-321h-102z" />
    <glyph glyph-name=".notdef" horiz-adv-x="397" 
 />
    <glyph glyph-name=".null" horiz-adv-x="0" 
 />
    <glyph glyph-name="nonmarkingreturn" horiz-adv-x="333" 
 />
    <glyph glyph-name="space" unicode=" " horiz-adv-x="251" 
 />
    <glyph glyph-name="exclam" unicode="!" horiz-adv-x="312" 
d="M111 177v523h90v-523h-90zM90 54q0 27 19.5 47t46.5 20t46.5 -20t19.5 -47q0 -28 -19.5 -47.5t-46.5 -19.5q-28 0 -47 19.5t-19 47.5z" />
    <glyph glyph-name="quotedbl" unicode="&#x22;" horiz-adv-x="365" 
d="M62 700h91l-16 -303h-58zM212 700h91l-17 -303h-57z" />
    <glyph glyph-name="numbersign" unicode="#" horiz-adv-x="568" 
d="M71 412v75h112l32 180h72l-33 -180h117l32 180h72l-33 -180h85v-75h-99l-26 -143h95v-75h-109l-35 -194h-69l34 194h-118l-35 -194h-69l34 194h-89v75h103l25 143h-98zM240 412l-26 -143h118l25 143h-117z" />
    <glyph glyph-name="dollar" unicode="$" horiz-adv-x="571" 
d="M261 -90v90h-188v100h188v205h-32q-80 0 -137 59.5t-57 140.5t56.5 138t137.5 57h32v90h55v-90h136v-95h-136v-204h28q82 0 140 -58.5t58 -139.5q0 -83 -58.5 -143t-139.5 -60h-28v-90h-55zM241 401h20v204h-20q-42 0 -72 -30t-30 -72t30 -72t72 -30zM326 305h-10v-205
h10q45 0 76.5 29t31.5 73q0 45 -31 74t-77 29z" />
    <glyph glyph-name="percent" unicode="%" horiz-adv-x="684" 
d="M519 712l52 -30l-406 -701l-53 29zM83 553q0 -43 29 -72.5t73 -29.5t73.5 29.5t29.5 72.5t-29.5 73t-73.5 30t-73 -30t-29 -73zM25 552q0 67 47 113.5t113 46.5t113.5 -47t47.5 -113q0 -64 -47.5 -110.5t-113.5 -46.5t-113 46t-47 111zM395 145q0 -43 29 -72.5t73 -29.5
t73.5 29.5t29.5 72.5t-29.5 73t-73.5 30t-73 -30t-29 -73zM337 144q0 67 47 113.5t113 46.5t113.5 -47t47.5 -113q0 -64 -47.5 -110.5t-113.5 -46.5t-113 46t-47 111z" />
    <glyph glyph-name="ampersand" unicode="&#x26;" horiz-adv-x="581" 
d="M473 181h-112l-65 124h-48q-46 0 -77 -29t-31 -74q0 -44 31.5 -73t76.5 -29h302v-100h-320q-81 0 -139.5 60t-58.5 143q0 81 58 139.5t140 58.5h16l-156 299h396v-86h-237z" />
    <glyph glyph-name="quotesingle" unicode="'" horiz-adv-x="215" 
d="M62 700h91l-16 -303h-58z" />
    <glyph glyph-name="parenleft" unicode="(" horiz-adv-x="320" 
d="M64 295q0 241 74 421h111q-81 -172 -81 -421t81 -421h-111q-74 180 -74 421z" />
    <glyph glyph-name="parenright" unicode=")" horiz-adv-x="320" 
d="M256 295q0 -241 -74 -421h-111q81 172 81 421t-81 421h111q74 -180 74 -421z" />
    <glyph glyph-name="asterisk" unicode="*" horiz-adv-x="367" 
d="M160 700h69v-95l81 48l35 -59l-85 -50l85 -50l-35 -58l-81 50v-96h-69v97l-87 -49l-34 57l85 49l-84 50l31 57l89 -49v98z" />
    <glyph glyph-name="plus" unicode="+" horiz-adv-x="512" 
d="M213 518h86v-216h213v-86h-213v-216h-86v216h-213v86h213v216z" />
    <glyph glyph-name="comma" unicode="," horiz-adv-x="249" 
d="M29 -114l66 214h111l-115 -214h-62z" />
    <glyph glyph-name="hyphen" unicode="-" horiz-adv-x="371" 
d="M52 201v88h266v-88h-266z" />
    <glyph glyph-name="period" unicode="." horiz-adv-x="228" 
d="M49 54q0 27 19.5 47t46.5 20t46.5 -20t19.5 -47q0 -28 -19.5 -47.5t-46.5 -19.5q-28 0 -47 19.5t-19 47.5z" />
    <glyph glyph-name="slash" unicode="/" horiz-adv-x="534" 
d="M414 737l83 -37l-378 -870l-82 37z" />
    <glyph glyph-name="zero" unicode="0" horiz-adv-x="613" 
d="M306 712q72 0 127 -32t85.5 -86t45.5 -115.5t15 -128.5q0 -53 -9 -103t-29.5 -98t-51 -83.5t-78 -57t-105.5 -21.5t-105.5 21.5t-78 57t-51 83.5t-29.5 98t-9 103q0 67 15 128.5t45.5 115.5t85.5 86t127 32zM306 75q90 0 129.5 76.5t39.5 198.5t-39.5 198t-129.5 76
t-129.5 -76t-39.5 -198t39.5 -198.5t129.5 -76.5z" />
    <glyph glyph-name="one" unicode="1" horiz-adv-x="338" 
d="M165 615h-101v86h199v-701h-98v615z" />
    <glyph glyph-name="two" unicode="2" horiz-adv-x="551" 
d="M53 503q0 86 66.5 147.5t158.5 61.5t158.5 -61.5t66.5 -147.5q0 -43 -13 -74t-43 -69l-215 -274h266v-86h-450l227 294q-91 1 -156.5 62.5t-65.5 146.5zM154 503q0 -50 36 -86t86 -36t86.5 36t36.5 86t-36.5 86t-86.5 36t-86 -36t-36 -86z" />
    <glyph glyph-name="three" unicode="3" horiz-adv-x="519" 
d="M240 327h-83l163 287h-237v86h396l-166 -296q75 -9 127.5 -63.5t52.5 -129.5q0 -97 -62 -160.5t-174 -63.5q-97 0 -158 54.5t-61 143.5h102q3 -51 35 -80.5t82 -29.5q61 0 96.5 33.5t35.5 90.5q0 58 -39.5 93t-109.5 35z" />
    <glyph glyph-name="four" unicode="4" horiz-adv-x="597" 
d="M488 206h86v-86h-86v-120h-98v120h-361l459 593v-507zM390 206v245l-187 -245h187z" />
    <glyph glyph-name="five" unicode="5" horiz-adv-x="499" 
d="M431 614h-257l-15 -129q13 3 41 3q111 0 189.5 -74t78.5 -178q0 -106 -75.5 -179t-192.5 -73q-113 0 -190 75l57 67q54 -54 133 -54q70 0 117 47.5t47 116.5q0 68 -51.5 116t-121.5 48q-71 0 -128 -48l38 348h330v-86z" />
    <glyph glyph-name="six" unicode="6" horiz-adv-x="515" 
d="M31 208q0 67 38 124l258 385l74 -55l-152 -231h7q95 0 161.5 -65.5t66.5 -157.5q0 -91 -66.5 -156t-161.5 -65q-93 0 -159 65t-66 156zM380 209q0 55 -35.5 93t-86.5 38t-87 -38t-36 -93t36 -93t87 -38t86.5 38t35.5 93z" />
    <glyph glyph-name="seven" unicode="7" horiz-adv-x="566" 
d="M91 28l300 586h-331v86h482l-369 -717z" />
    <glyph glyph-name="eight" unicode="8" horiz-adv-x="531" 
d="M265 -13q-92 0 -158 60.5t-66 145.5q0 52 27 98t73 74q-76 57 -76 153q0 80 58.5 137t141.5 57t141.5 -57t58.5 -137q0 -96 -76 -153q46 -28 73 -74t27 -98q0 -85 -66 -145.5t-158 -60.5zM265 316q-50 0 -85 -34.5t-35 -84.5t35 -84t85 -34t85 34t35 84t-35 84.5
t-85 34.5zM265 621q-44 0 -73 -29.5t-29 -75.5q0 -45 29 -74.5t73 -29.5t73 29.5t29 74.5q0 46 -29 75.5t-73 29.5z" />
    <glyph glyph-name="nine" unicode="9" horiz-adv-x="515" 
d="M484 491q0 -69 -38 -124l-258 -385l-74 55l152 231h-7q-95 0 -161.5 65.5t-66.5 157.5q0 91 66.5 156t161.5 65q93 0 159 -65t66 -156zM135 490q0 -55 35.5 -93t86.5 -38t87 38t36 93t-36 93t-87 38t-86.5 -38t-35.5 -93z" />
    <glyph glyph-name="colon" unicode=":" horiz-adv-x="228" 
d="M49 54q0 27 19.5 47t46.5 20t46.5 -20t19.5 -47q0 -28 -19.5 -47.5t-46.5 -19.5q-28 0 -47 19.5t-19 47.5zM49 408q0 27 19.5 47t46.5 20t46.5 -20t19.5 -47q0 -28 -19.5 -47.5t-46.5 -19.5q-28 0 -47 19.5t-19 47.5z" />
    <glyph glyph-name="semicolon" unicode=";" horiz-adv-x="249" 
d="M90 408q0 27 19.5 47t46.5 20t46.5 -20t19.5 -47q0 -28 -19.5 -47.5t-46.5 -19.5q-28 0 -47 19.5t-19 47.5zM29 -114l66 214h111l-115 -214h-62z" />
    <glyph glyph-name="equal" unicode="=" horiz-adv-x="512" 
d="M0 427h512v-86h-512v86zM0 242h512v-86h-512v86z" />
    <glyph glyph-name="question" unicode="?" horiz-adv-x="565" 
d="M340 174h-97q0 44 16 83t39.5 67l46.5 54t39 56.5t16 63.5q0 50 -33.5 84.5t-86.5 34.5q-52 0 -83 -35.5t-31 -86.5h-98q0 91 58.5 154t153.5 63q96 0 158 -61.5t62 -152.5q0 -43 -16.5 -80t-40 -63.5l-47 -52t-40 -58.5t-16.5 -70zM222 54q0 27 19.5 47t46.5 20
t46.5 -20t19.5 -47q0 -28 -19.5 -47.5t-46.5 -19.5q-28 0 -47 19.5t-19 47.5z" />
    <glyph glyph-name="at" unicode="@" horiz-adv-x="728" 
d="M422 401h131v85q-55 23 -115 23q-127 0 -214 -90.5t-87 -216.5q0 -124 88.5 -212.5t212.5 -88.5v-100q-105 0 -198 52t-150.5 145t-57.5 204q0 168 118 287.5t288 119.5q125 0 215 -61v-548h-231q-81 0 -139.5 60t-58.5 143q0 81 58 139.5t140 58.5zM553 100v205h-113
q-46 0 -77 -29t-31 -74q0 -44 31.5 -73t76.5 -29h113z" />
    <glyph glyph-name="A" unicode="A" horiz-adv-x="622" 
d="M427 175h-232l-72 -175h-108l296 713l296 -713h-108zM393 265l-82 209l-82 -209h164z" />
    <glyph glyph-name="B" unicode="B" horiz-adv-x="588" 
d="M459 370q42 -23 67.5 -67t25.5 -98q0 -84 -60 -144.5t-145 -60.5h-272v700h267q78 0 133.5 -55.5t55.5 -133.5q0 -77 -72 -141zM325 610h-148v-199h148q42 0 71 29t29 70q0 42 -29 71t-71 29zM177 90h153q47 0 81.5 34.5t34.5 80.5q0 48 -34 82t-82 34h-153v-231z" />
    <glyph glyph-name="C" unicode="C" horiz-adv-x="566" 
d="M515 122v-113q-61 -22 -124 -22q-149 0 -254 106t-105 256q0 151 105 257t254 106q63 0 124 -22v-114q-58 36 -124 36q-103 0 -176 -77t-73 -186q0 -108 73 -185t176 -77q68 0 124 35z" />
    <glyph glyph-name="D" unicode="D" horiz-adv-x="692" 
d="M177 90h131q106 0 175.5 75.5t69.5 184.5t-70 184.5t-175 75.5h-131v-520zM75 0v700h245q141 0 240 -102.5t99 -247.5q0 -146 -97.5 -248t-241.5 -102h-245z" />
    <glyph glyph-name="E" unicode="E" horiz-adv-x="537" 
d="M75 0v700h408v-98h-306v-169h292v-96h-292v-237h312v-100h-414z" />
    <glyph glyph-name="F" unicode="F" horiz-adv-x="537" 
d="M75 0v700h408v-98h-306v-185h292v-96h-292v-321h-102z" />
    <glyph glyph-name="G" unicode="G" horiz-adv-x="792" 
d="M382 310v94h364q4 -24 4 -55q0 -152 -102 -257t-257 -105q-149 0 -254 106t-105 256q0 151 105 257t254 106q86 0 161.5 -39t125.5 -106l-14 -11l-27.5 -21.5l-30.5 -23.5l-13 -9q-34 51 -87.5 80.5t-114.5 29.5q-103 0 -176 -77t-73 -186q0 -108 73 -185t176 -77
q105 0 174.5 62t74.5 161h-258z" />
    <glyph glyph-name="H" unicode="H" horiz-adv-x="627" 
d="M75 0v700h102v-301h273v301h102v-700h-102v309h-273v-309h-102z" />
    <glyph glyph-name="I" unicode="I" horiz-adv-x="252" 
d="M75 0v700h102v-700h-102z" />
    <glyph glyph-name="J" unicode="J" horiz-adv-x="477" 
d="M21 195h102q0 -54 24.5 -80t63.5 -26q37 0 63 26t26 63v522h102v-521q0 -80 -55.5 -136t-135.5 -56q-82 0 -136 56t-54 152z" />
    <glyph glyph-name="K" unicode="K" horiz-adv-x="566" 
d="M75 0v700h102v-318l233 318h117l-239 -323l260 -377h-129l-194 293l-48 -65v-228h-102z" />
    <glyph glyph-name="L" unicode="L" horiz-adv-x="487" 
d="M75 0v700h102v-600h286v-100h-388z" />
    <glyph glyph-name="M" unicode="M" horiz-adv-x="820" 
d="M171 713l234 -491l234 491l132 -713h-106l-69 395l-191 -408l-191 408l-69 -395h-106z" />
    <glyph glyph-name="N" unicode="N" horiz-adv-x="688" 
d="M70 0v700h94l358 -441v441h96v-712l-452 540v-528h-96z" />
    <glyph glyph-name="O" unicode="O" horiz-adv-x="782" 
d="M32 349q0 151 105 257t254 106t254 -106t105 -257q0 -150 -105 -256t-254 -106t-254 106t-105 256zM142 349q0 -108 73 -185t176 -77t176 77t73 185q0 109 -73 186t-176 77t-176 -77t-73 -186z" />
    <glyph glyph-name="P" unicode="P" horiz-adv-x="585" 
d="M553 467q0 -97 -67.5 -164.5t-163.5 -67.5h-145v-235h-102v700h247q96 0 163.5 -68.5t67.5 -164.5zM447 467q0 59 -40.5 101t-98.5 42h-131v-285h131q65 0 102 39t37 103z" />
    <glyph glyph-name="Q" unicode="Q" horiz-adv-x="784" 
d="M33 349q0 151 105 257t254 106t254 -106t105 -257q0 -137 -89 -239.5t-222 -119.5v-141h-96v141q-133 17 -222 119.5t-89 239.5zM143 349q0 -95 57.5 -167.5t143.5 -89.5v95h96v-95q86 17 143.5 89.5t57.5 167.5q0 109 -73 186t-176 77t-176 -77t-73 -186z" />
    <glyph glyph-name="R" unicode="R" horiz-adv-x="624" 
d="M448 250q117 -67 117 -221v-29h-104v29q0 64 -44 120t-115 56h-124v-205h-103v700h227q112 0 187.5 -70.5t75.5 -177.5q0 -70 -35 -124t-82 -78zM459 452q0 62 -42 110t-103 48h-136v-315h136q60 0 102.5 48t42.5 109z" />
    <glyph glyph-name="S" unicode="S" horiz-adv-x="571" 
d="M241 401h103q82 0 140 -58.5t58 -139.5q0 -83 -58.5 -143t-139.5 -60h-271v100h253q45 0 76.5 29t31.5 73q0 45 -31 74t-77 29h-97q-80 0 -137 59.5t-57 140.5t56.5 138t137.5 57h223v-95h-211q-42 0 -72 -30t-30 -72t30 -72t72 -30z" />
    <glyph glyph-name="T" unicode="T" horiz-adv-x="502" 
d="M200 0v602h-173v98h448v-98h-173v-602h-102z" />
    <glyph glyph-name="U" unicode="U" horiz-adv-x="621" 
d="M75 700h102v-477q0 -56 40.5 -97t97.5 -41t98 41t41 97v477h102v-477q0 -99 -70.5 -167.5t-171.5 -68.5q-100 0 -169.5 68.5t-69.5 167.5v477z" />
    <glyph glyph-name="V" unicode="V" horiz-adv-x="612" 
d="M594 700l-288 -712l-288 712h107l181 -445l181 445h107z" />
    <glyph glyph-name="W" unicode="W" horiz-adv-x="802" 
d="M784 700l-288 -712l-95 234l-95 -234l-288 712h107l181 -445l41 99l-139 346h107l181 -445l181 445h107z" />
    <glyph glyph-name="X" unicode="X" horiz-adv-x="537" 
d="M162 700l107 -211l107 211h109l-166 -324l193 -376h-108l-135 261l-135 -261h-108l193 376l-166 324h109z" />
    <glyph glyph-name="Y" unicode="Y" horiz-adv-x="568" 
d="M335 295v-295h-102v295l-216 405h113l154 -304l154 304h113z" />
    <glyph glyph-name="Z" unicode="Z" horiz-adv-x="505" 
d="M468 0h-444l282 602h-244v98h407l-284 -600h283v-100z" />
    <glyph glyph-name="bracketleft" unicode="[" horiz-adv-x="315" 
d="M165 632v-675h90v-84h-190v843h190v-84h-90z" />
    <glyph glyph-name="backslash" unicode="\" horiz-adv-x="534" 
d="M37 700l83 37l377 -870l-82 -37z" />
    <glyph glyph-name="bracketright" unicode="]" horiz-adv-x="315" 
d="M150 -43v675h-90v84h190v-843h-190v84h90z" />
    <glyph glyph-name="underscore" unicode="_" horiz-adv-x="640" 
d="M620 -68v-68h-601v68h601z" />
    <glyph glyph-name="grave" unicode="`" horiz-adv-x="229" 
d="M116 657l95 -130h-70l-123 130h98z" />
    <glyph glyph-name="a" unicode="a" horiz-adv-x="440" 
d="M298 83h-155l-35 -83h-101l213 482l213 -482h-101zM268 168l-48 113l-48 -113h96z" />
    <glyph glyph-name="b" unicode="b" horiz-adv-x="456" 
d="M366 250q29 -16 47 -45.5t18 -65.5q0 -57 -41.5 -98t-98.5 -41h-231v470h228q52 0 89.5 -36.5t37.5 -89.5q0 -51 -49 -94zM156 382v-92h110q19 0 33 13.5t14 32.5t-14 32.5t-33 13.5h-110zM156 90h114q23 0 39.5 16.5t16.5 40.5q0 23 -16.5 40t-39.5 17h-114v-114z" />
    <glyph glyph-name="c" unicode="c" horiz-adv-x="385" 
d="M21 233q0 103 73.5 175.5t175.5 72.5q43 0 79 -13v-103q-36 23 -79 23q-63 0 -105.5 -45.5t-42.5 -109.5t43 -109t105 -45q44 0 79 23v-103q-41 -13 -79 -13q-102 0 -175.5 72.5t-73.5 174.5z" />
    <glyph glyph-name="d" unicode="d" horiz-adv-x="523" 
d="M156 90h92q64 0 105 42t41 104t-41 104t-105 42h-92v-292zM60 0v470h214q95 0 161.5 -68.5t66.5 -165.5q0 -98 -66 -167t-162 -69h-214z" />
    <glyph glyph-name="e" unicode="e" 
d="M60 0v470h278v-90h-182v-90h172v-88h-172v-112h186v-90h-282z" />
    <glyph glyph-name="f" unicode="f" 
d="M60 0v470h278v-90h-182v-100h172v-88h-172v-192h-96z" />
    <glyph glyph-name="g" unicode="g" horiz-adv-x="535" 
d="M469 384l-79 -58q-42 62 -120 62q-63 0 -105.5 -45.5t-42.5 -109.5t43 -109t105 -45q51 0 88 29t53 74h-147v88h253q3 -18 3 -37q0 -102 -73.5 -174.5t-176.5 -72.5q-102 0 -175.5 72.5t-73.5 174.5q0 103 73.5 175.5t175.5 72.5q128 0 199 -97z" />
    <glyph glyph-name="h" unicode="h" horiz-adv-x="496" 
d="M60 0v470h96v-191h184v191h96v-470h-96v195h-184v-195h-96z" />
    <glyph glyph-name="i" unicode="i" horiz-adv-x="216" 
d="M60 0v470h96v-470h-96z" />
    <glyph glyph-name="j" unicode="j" horiz-adv-x="391" 
d="M19 151h96q0 -36 16.5 -54t42.5 -18q25 0 43 18t18 42v331h96v-326q0 -65 -46 -111t-111 -46t-110 46t-45 118z" />
    <glyph glyph-name="k" unicode="k" horiz-adv-x="441" 
d="M60 0v470h96v-202l142 202h108l-154 -209l187 -261h-121l-125 182l-37 -49v-133h-96z" />
    <glyph glyph-name="l" unicode="l" 
d="M60 0v470h96v-380h192v-90h-288z" />
    <glyph glyph-name="m" unicode="m" horiz-adv-x="580" 
d="M411 225l-121 -237l-121 237l-43 -225h-90l94 482l160 -313l160 313l94 -482h-90z" />
    <glyph glyph-name="n" unicode="n" horiz-adv-x="499" 
d="M60 0v470h84l205 -240v240h90v-482l-289 347v-335h-90z" />
    <glyph glyph-name="o" unicode="o" horiz-adv-x="541" 
d="M270 -14q-102 0 -175.5 72.5t-73.5 174.5q0 103 73.5 175.5t175.5 72.5q103 0 176.5 -72.5t73.5 -175.5q0 -102 -73.5 -174.5t-176.5 -72.5zM270 79q63 0 106 45t43 109t-43 109.5t-106 45.5t-105.5 -45.5t-42.5 -109.5t43 -109t105 -45z" />
    <glyph glyph-name="p" unicode="p" horiz-adv-x="436" 
d="M422 314q0 -66 -45.5 -114t-109.5 -48h-111v-152h-96v470h207q64 0 109.5 -46t45.5 -110zM320 311q0 29 -21 50t-50 21h-93v-142h93q29 0 50 21t21 50z" />
    <glyph glyph-name="q" unicode="q" horiz-adv-x="541" 
d="M232 -108v97q-90 14 -150.5 83t-60.5 161q0 103 73.5 175.5t175.5 72.5q103 0 176.5 -72.5t73.5 -175.5q0 -92 -60.5 -161t-150.5 -83v-97h-77zM309 152v-68q49 13 79.5 54.5t30.5 94.5q0 64 -43 109.5t-106 45.5t-105.5 -45.5t-42.5 -109.5q0 -53 30.5 -94.5t79.5 -54.5
v68h77z" />
    <glyph glyph-name="r" unicode="r" horiz-adv-x="451" 
d="M219 138h-63v-138h-96v470h207q64 0 109.5 -46t45.5 -110q0 -42 -20.5 -82.5t-53.5 -65.5q37 -18 55.5 -56.5t18.5 -82.5v-27h-96v22q0 43 -29.5 79.5t-77.5 36.5zM320 304q0 32 -23 55t-55 23h-86v-156h86q32 0 55 23t23 55z" />
    <glyph glyph-name="s" unicode="s" horiz-adv-x="393" 
d="M168 286h56q60 0 101.5 -41.5t41.5 -101.5q0 -56 -43.5 -99.5t-99.5 -43.5h-172v86h165q23 0 39.5 16.5t16.5 39.5t-16.5 39.5t-39.5 16.5h-55q-56 0 -96 40t-40 96q0 57 40 96.5t96 39.5h145v-86h-139q-20 0 -34.5 -14.5t-14.5 -34.5t14.5 -34.5t34.5 -14.5z" />
    <glyph glyph-name="t" unicode="t" horiz-adv-x="386" 
d="M145 0v378h-116v92h326v-92h-114v-378h-96z" />
    <glyph glyph-name="u" unicode="u" horiz-adv-x="446" 
d="M228 -13q-70 0 -119 49t-49 119v315h96v-319q0 -30 21 -51t51 -21t51 21t21 51v319h96v-315q0 -70 -49 -119t-119 -49z" />
    <glyph glyph-name="v" unicode="v" horiz-adv-x="430" 
d="M109 470l106 -269l106 269h96l-202 -482l-202 482h96z" />
    <glyph glyph-name="w" unicode="w" horiz-adv-x="596" 
d="M380 181l106 289h96l-202 -482l-78 180l-75 -180l-213 482h96l121 -289l32 81l-84 208h95z" />
    <glyph glyph-name="x" unicode="x" horiz-adv-x="424" 
d="M302 0l-90 176l-90 -176h-107l130 252l-112 218h107l72 -141l72 141h107l-112 -218l130 -252h-107z" />
    <glyph glyph-name="y" unicode="y" horiz-adv-x="432" 
d="M121 470l95 -187l95 187h107l-154 -272v-198h-96v198l-154 272h107z" />
    <glyph glyph-name="z" unicode="z" horiz-adv-x="433" 
d="M394 0h-379l229 382h-196v88h362l-229 -380h213v-90z" />
    <glyph glyph-name="braceleft" unicode="{" horiz-adv-x="305" 
d="M124 294q76 -21 76 -141v-166q0 -13 9 -22t22 -9h40v-84h-88q-35 0 -60 25t-25 61v195q0 58 -15.5 81t-59.5 23v74q44 0 59.5 23t15.5 81v195q0 36 25 61t60 25h88v-84h-40q-13 0 -22 -9t-9 -22v-166q0 -120 -76 -141z" />
    <glyph glyph-name="bar" unicode="|" horiz-adv-x="301" 
d="M100 -198v948h101v-948h-101z" />
    <glyph glyph-name="braceright" unicode="}" horiz-adv-x="305" 
d="M181 294q-76 21 -76 141v166q0 13 -9 22t-22 9h-40v84h88q35 0 60 -25t25 -61v-195q0 -58 15.5 -81t59.5 -23v-74q-44 0 -59.5 -23t-15.5 -81v-195q0 -36 -25 -61t-60 -25h-88v84h40q13 0 22 9t9 22v166q0 120 76 141z" />
    <glyph glyph-name="exclamdown" unicode="&#xa1;" horiz-adv-x="312" 
d="M116 -232v523h90v-523h-90zM95 414q0 28 19 47.5t47 19.5q27 0 46.5 -19.5t19.5 -47.5q0 -27 -19.5 -47t-46.5 -20t-46.5 20t-19.5 47z" />
    <glyph glyph-name="cent" unicode="&#xa2;" horiz-adv-x="385" 
d="M231 -124v113q-89 14 -149.5 83t-60.5 161t60.5 161.5t149.5 83.5v105h54v-103q32 -1 64 -12v-107q-30 24 -79 24q-61 0 -103 -44.5t-42 -107.5q0 -62 42 -106.5t103 -44.5q46 0 79 24v-107q-38 -11 -64 -12v-111h-54z" />
    <glyph glyph-name="sterling" unicode="&#xa3;" horiz-adv-x="574" 
d="M491 542h-96q-3 27 -27 50.5t-68 23.5t-73 -30.5t-29 -72.5v-105h222v-90h-222v-218h162q34 0 58.5 24t24.5 59q-1 23 -9 51h102q6 -30 6 -55q0 -82 -55 -130.5t-153 -48.5h-289v100h55v218h-37v90h37v108q0 78 57 137t140 59q90 0 141 -50t53 -120z" />
    <glyph glyph-name="yen" unicode="&#xa5;" horiz-adv-x="568" 
d="M374 369h166v-86h-205v-65h205v-86h-205v-132h-102v132h-205v86h205v65h-205v86h165l-176 331h113l154 -304l154 304h113z" />
    <glyph glyph-name="section" unicode="&#xa7;" horiz-adv-x="579" 
d="M265 429h78q80 0 136 -56t56 -135q0 -46 -22 -84.5t-54 -61.5q76 -51 76 -145q0 -80 -56 -133.5t-136 -53.5h-220v87h203q44 0 74.5 28.5t30.5 70.5q0 43 -30.5 71.5t-74.5 28.5h-94q-78 0 -133 57.5t-55 136.5q0 97 88 152q-29 21 -48.5 57t-19.5 81q0 78 55 133.5
t133 55.5h196v-87h-183q-43 0 -72 -29.5t-29 -72.5t29 -72t72 -29zM333 336h-90q-41 0 -70 -29t-29 -69t29 -69.5t70 -29.5h90q40 0 69 29t29 70q0 40 -28.5 69t-69.5 29z" />
    <glyph glyph-name="dieresis" unicode="&#xa8;" horiz-adv-x="453" 
d="M95 576q0 20 14 34.5t34 14.5q19 0 33.5 -14.5t14.5 -34.5t-14 -34.5t-34 -14.5t-34 14.5t-14 34.5zM282 576q0 20 14 34.5t34 14.5q19 0 33.5 -14.5t14.5 -34.5t-14 -34.5t-34 -14.5t-34 14.5t-14 34.5z" />
    <glyph glyph-name="copyright" unicode="&#xa9;" horiz-adv-x="780" 
d="M390 -13q-150 0 -254.5 105.5t-104.5 256.5q0 152 104.5 257.5t254.5 105.5t254.5 -105.5t104.5 -257.5q0 -151 -104.5 -256.5t-254.5 -105.5zM390 650q-123 0 -207.5 -87t-84.5 -214q0 -126 85 -213t207 -87t207 87t85 213q0 127 -84.5 214t-207.5 87zM474 221v-66
q-33 -12 -71 -12q-86 0 -146.5 61t-60.5 148t60.5 148t146.5 61q38 0 71 -12v-66q-32 20 -71 20q-59 0 -101.5 -44.5t-42.5 -106.5t42.5 -106.5t101.5 -44.5q39 0 71 20z" />
    <glyph glyph-name="ordfeminine" unicode="&#xaa;" horiz-adv-x="265" 
d="M172 485h-80l-23 -52h-65l128 280l128 -280h-65zM132 595l-26 -62h52z" />
    <glyph glyph-name="guillemotleft" unicode="&#xab;" horiz-adv-x="506" 
d="M195 44l-152 207l152 207h86l-151 -207l151 -207h-86zM376 44l-152 207l152 207h86l-151 -207l151 -207h-86z" />
    <glyph glyph-name="registered" unicode="&#xae;" horiz-adv-x="337" 
d="M168 436q-57 0 -97 40t-40 98t40 98t97 40t97 -40t40 -98t-40 -98t-97 -40zM168 687q-46 0 -77.5 -32.5t-31.5 -80.5t31.5 -80.5t77.5 -32.5t77.5 32.5t31.5 80.5t-31.5 80.5t-77.5 32.5zM204 552q27 -15 27 -50v-7h-26v7q0 14 -10 27t-26 13h-28v-47h-26v160h56
q26 0 43 -16t17 -41q0 -31 -27 -46zM205 598q0 14 -9.5 24.5t-23.5 10.5h-31v-70h31q14 0 23.5 10.5t9.5 24.5z" />
    <glyph glyph-name="macron" unicode="&#xaf;" horiz-adv-x="399" 
d="M75 543v73h249v-73h-249z" />
    <glyph glyph-name="degree" unicode="&#xb0;" horiz-adv-x="356" 
d="M178 442q-56 0 -95 39.5t-39 95.5t39 95.5t95 39.5t95 -39.5t39 -95.5t-39 -95.5t-95 -39.5zM178 658q-33 0 -55.5 -23t-22.5 -58q0 -34 22.5 -57.5t55.5 -23.5t55.5 23.5t22.5 57.5q0 35 -22.5 58t-55.5 23z" />
    <glyph glyph-name="acute" unicode="&#xb4;" horiz-adv-x="229" 
d="M18 527l95 130h98l-123 -130h-70z" />
    <glyph glyph-name="paragraph" unicode="&#xb6;" horiz-adv-x="585" 
d="M255 -127v376q-93 0 -159.5 66.5t-66.5 159.5t66.5 159.5t159.5 66.5h279v-81h-59v-747h-80v747h-60v-747h-80z" />
    <glyph glyph-name="periodcentered" unicode="&#xb7;" horiz-adv-x="230" 
d="M49 265q0 27 19.5 47t46.5 20t46.5 -20t19.5 -47q0 -28 -19.5 -47.5t-46.5 -19.5q-28 0 -47 19.5t-19 47.5z" />
    <glyph glyph-name="ordmasculine" unicode="&#xba;" horiz-adv-x="322" 
d="M161 428q-60 0 -101 41.5t-41 100.5q0 60 41 101.5t101 41.5t101 -41.5t41 -101.5q0 -59 -41 -100.5t-101 -41.5zM161 651q-32 0 -54 -24t-22 -57t22 -57t54 -24q31 0 53.5 24t22.5 57t-22.5 57t-53.5 24z" />
    <glyph glyph-name="guillemotright" unicode="&#xbb;" horiz-adv-x="506" 
d="M462 251l-152 -207h-86l151 207l-151 207h86zM281 251l-152 -207h-86l151 207l-151 207h86z" />
    <glyph glyph-name="questiondown" unicode="&#xbf;" horiz-adv-x="565" 
d="M225 294h97q0 -44 -16 -83t-39 -67l-46.5 -54t-39.5 -56.5t-16 -63.5q0 -50 33.5 -84.5t86.5 -34.5q52 0 83 35.5t31 86.5h98q0 -91 -58.5 -154t-153.5 -63q-96 0 -158 61.5t-62 152.5q0 43 16.5 80t40 63.5l47 52t40 58.5t16.5 70zM343 414q0 -27 -19.5 -47t-46.5 -20
t-46.5 20t-19.5 47q0 28 19.5 47.5t46.5 19.5q28 0 47 -19.5t19 -47.5z" />
    <glyph glyph-name="Agrave" unicode="&#xc0;" horiz-adv-x="622" 
d="M427 175h-232l-72 -175h-108l296 713l296 -713h-108zM393 265l-82 209l-82 -209h164zM261 880l95 -130h-70l-123 130h98z" />
    <glyph glyph-name="Aacute" unicode="&#xc1;" horiz-adv-x="622" 
d="M427 175h-232l-72 -175h-108l296 713l296 -713h-108zM393 265l-82 209l-82 -209h164zM257 750l95 130h98l-123 -130h-70z" />
    <glyph glyph-name="Acircumflex" unicode="&#xc2;" horiz-adv-x="622" 
d="M427 175h-232l-72 -175h-108l296 713l296 -713h-108zM393 265l-82 209l-82 -209h164zM411 745l-99 60l-100 -60v78l100 60l99 -60v-78z" />
    <glyph glyph-name="Atilde" unicode="&#xc3;" horiz-adv-x="622" 
d="M427 175h-232l-72 -175h-108l296 713l296 -713h-108zM393 265l-82 209l-82 -209h164zM358 759q-16 0 -46.5 10t-46.5 10q-31 0 -46 -31l-50 30q24 67 96 67q19 0 49 -10t44 -10q31 0 46 31l50 -30q-24 -67 -96 -67z" />
    <glyph glyph-name="Adieresis" unicode="&#xc4;" horiz-adv-x="622" 
d="M427 175h-232l-72 -175h-108l296 713l296 -713h-108zM393 265l-82 209l-82 -209h164zM170 799q0 20 14 34.5t34 14.5q19 0 33.5 -14.5t14.5 -34.5t-14 -34.5t-34 -14.5t-34 14.5t-14 34.5zM357 799q0 20 14 34.5t34 14.5q19 0 33.5 -14.5t14.5 -34.5t-14 -34.5t-34 -14.5
t-34 14.5t-14 34.5z" />
    <glyph glyph-name="Aring" unicode="&#xc5;" horiz-adv-x="622" 
d="M427 175h-232l-72 -175h-108l296 713l296 -713h-108zM393 265l-82 209l-82 -209h164zM214 848q0 40 28 68.5t69 28.5t69.5 -28.5t28.5 -68.5q0 -41 -28.5 -69.5t-69.5 -28.5t-69 28.5t-28 69.5zM264 847q0 -19 14 -32.5t33 -13.5t33 13.5t14 32.5q0 21 -13.5 34t-33.5 13
t-33.5 -13t-13.5 -34z" />
    <glyph glyph-name="AE" unicode="&#xc6;" horiz-adv-x="813" 
d="M425 175h-230l-73 -175h-108l293 700h457v-98h-410l72 -169h338v-96h-297l100 -237h197v-100h-266zM386 275l-76 189l-76 -189h152z" />
    <glyph glyph-name="Ccedilla" unicode="&#xc7;" horiz-adv-x="567" 
d="M515 122v-113q-61 -22 -124 -22q-44 0 -88 11l-88 -127l-72 49l77 110q-85 47 -136.5 132t-51.5 187q0 151 105 257t254 106q63 0 124 -22v-114q-58 36 -124 36q-103 0 -176 -77t-73 -186q0 -75 37.5 -137.5t99.5 -96.5l48 71l72 -49l-32 -49q8 -1 24 -1q68 0 124 35z
" />
    <glyph glyph-name="Egrave" unicode="&#xc8;" horiz-adv-x="539" 
d="M77 0v700h408v-98h-306v-169h292v-96h-292v-237h312v-100h-414zM286 880l95 -130h-70l-123 130h98z" />
    <glyph glyph-name="Eacute" unicode="&#xc9;" horiz-adv-x="539" 
d="M77 0v700h408v-98h-306v-169h292v-96h-292v-237h312v-100h-414zM233 750l95 130h98l-123 -130h-70z" />
    <glyph glyph-name="Ecircumflex" unicode="&#xca;" horiz-adv-x="539" 
d="M77 0v700h408v-98h-306v-169h292v-96h-292v-237h312v-100h-414zM392 745l-99 60l-100 -60v78l100 60l99 -60v-78z" />
    <glyph glyph-name="Edieresis" unicode="&#xcb;" horiz-adv-x="539" 
d="M77 0v700h408v-98h-306v-169h292v-96h-292v-237h312v-100h-414zM146 799q0 20 14 34.5t34 14.5q19 0 33.5 -14.5t14.5 -34.5t-14 -34.5t-34 -14.5t-34 14.5t-14 34.5zM333 799q0 20 14 34.5t34 14.5q19 0 33.5 -14.5t14.5 -34.5t-14 -34.5t-34 -14.5t-34 14.5t-14 34.5z
" />
    <glyph glyph-name="Igrave" unicode="&#xcc;" horiz-adv-x="252" 
d="M75 0v700h102v-700h-102zM89 881l95 -130h-70l-123 130h98z" />
    <glyph glyph-name="Iacute" unicode="&#xcd;" horiz-adv-x="252" 
d="M75 0v700h102v-700h-102zM62 750l95 130h98l-123 -130h-70z" />
    <glyph glyph-name="Icircumflex" unicode="&#xce;" horiz-adv-x="252" 
d="M75 0v700h102v-700h-102zM226 745l-99 60l-100 -60v78l100 60l99 -60v-78z" />
    <glyph glyph-name="Idieresis" unicode="&#xcf;" horiz-adv-x="252" 
d="M75 0v700h102v-700h-102zM-15 799q0 20 14 34.5t34 14.5q19 0 33.5 -14.5t14.5 -34.5t-14 -34.5t-34 -14.5t-34 14.5t-14 34.5zM172 799q0 20 14 34.5t34 14.5q19 0 33.5 -14.5t14.5 -34.5t-14 -34.5t-34 -14.5t-34 14.5t-14 34.5z" />
    <glyph glyph-name="Eth" unicode="&#xd0;" horiz-adv-x="690" 
d="M22 330v88h53v282h245q141 0 240 -102.5t99 -247.5q0 -146 -97.5 -248t-241.5 -102h-245v330h-53zM177 90h131q106 0 175.5 75.5t69.5 184.5t-70 184.5t-175 75.5h-131v-192h132v-88h-132v-240z" />
    <glyph glyph-name="Ntilde" unicode="&#xd1;" horiz-adv-x="700" 
d="M70 0v700h94l358 -441v441h96v-712l-452 540v-528h-96zM394 759q-16 0 -46.5 10t-46.5 10q-31 0 -46 -31l-50 30q24 67 96 67q19 0 49 -10t44 -10q31 0 46 31l50 -30q-24 -67 -96 -67z" />
    <glyph glyph-name="Ograve" unicode="&#xd2;" horiz-adv-x="782" 
d="M32 349q0 151 105 257t254 106t254 -106t105 -257q0 -150 -105 -256t-254 -106t-254 106t-105 256zM142 349q0 -108 73 -185t176 -77t176 77t73 185q0 109 -73 186t-176 77t-176 -77t-73 -186zM357 880l95 -130h-70l-123 130h98z" />
    <glyph glyph-name="Oacute" unicode="&#xd3;" horiz-adv-x="782" 
d="M32 349q0 151 105 257t254 106t254 -106t105 -257q0 -150 -105 -256t-254 -106t-254 106t-105 256zM142 349q0 -108 73 -185t176 -77t176 77t73 185q0 109 -73 186t-176 77t-176 -77t-73 -186zM321 750l95 130h98l-123 -130h-70z" />
    <glyph glyph-name="Ocircumflex" unicode="&#xd4;" horiz-adv-x="782" 
d="M32 349q0 151 105 257t254 106t254 -106t105 -257q0 -150 -105 -256t-254 -106t-254 106t-105 256zM142 349q0 -108 73 -185t176 -77t176 77t73 185q0 109 -73 186t-176 77t-176 -77t-73 -186zM490 730l-99 60l-100 -60v78l100 60l99 -60v-78z" />
    <glyph glyph-name="Otilde" unicode="&#xd5;" horiz-adv-x="782" 
d="M32 349q0 151 105 257t254 106t254 -106t105 -257q0 -150 -105 -256t-254 -106t-254 106t-105 256zM142 349q0 -108 73 -185t176 -77t176 77t73 185q0 109 -73 186t-176 77t-176 -77t-73 -186zM437 759q-16 0 -46.5 10t-46.5 10q-31 0 -46 -31l-50 30q24 67 96 67
q19 0 49 -10t44 -10q31 0 46 31l50 -30q-24 -67 -96 -67z" />
    <glyph glyph-name="Odieresis" unicode="&#xd6;" horiz-adv-x="782" 
d="M32 349q0 151 105 257t254 106t254 -106t105 -257q0 -150 -105 -256t-254 -106t-254 106t-105 256zM142 349q0 -108 73 -185t176 -77t176 77t73 185q0 109 -73 186t-176 77t-176 -77t-73 -186zM249 799q0 20 14 34.5t34 14.5q19 0 33.5 -14.5t14.5 -34.5t-14 -34.5
t-34 -14.5t-34 14.5t-14 34.5zM436 799q0 20 14 34.5t34 14.5q19 0 33.5 -14.5t14.5 -34.5t-14 -34.5t-34 -14.5t-34 14.5t-14 34.5z" />
    <glyph glyph-name="multiply" unicode="&#xd7;" horiz-adv-x="543" 
d="M410 56l-143 150l-143 -150l-60 56l147 152l-150 156l55 59l150 -155l152 155l55 -59l-153 -153l150 -155z" />
    <glyph glyph-name="Oslash" unicode="&#xd8;" horiz-adv-x="783" 
d="M33 349q0 151 105 257t254 106q138 0 239 -93l80 80l40 -39l-81 -81q81 -102 81 -230q0 -150 -105 -256t-254 -106q-132 0 -233 85l-86 -86l-40 39l87 87q-87 101 -87 237zM143 349q0 -90 53 -161l361 357q-70 67 -165 67q-103 0 -176 -77t-73 -186zM641 349
q0 84 -48 154l-359 -357q69 -59 158 -59q103 0 176 77t73 185z" />
    <glyph glyph-name="Ugrave" unicode="&#xd9;" horiz-adv-x="621" 
d="M75 700h102v-477q0 -56 40.5 -97t97.5 -41t98 41t41 97v477h102v-477q0 -99 -70.5 -167.5t-171.5 -68.5q-100 0 -169.5 68.5t-69.5 167.5v477zM306 880l95 -130h-70l-123 130h98z" />
    <glyph glyph-name="Uacute" unicode="&#xda;" horiz-adv-x="621" 
d="M75 700h102v-477q0 -56 40.5 -97t97.5 -41t98 41t41 97v477h102v-477q0 -99 -70.5 -167.5t-171.5 -68.5q-100 0 -169.5 68.5t-69.5 167.5v477zM247 750l95 130h98l-123 -130h-70z" />
    <glyph glyph-name="Ucircumflex" unicode="&#xdb;" horiz-adv-x="621" 
d="M75 700h102v-477q0 -56 40.5 -97t97.5 -41t98 41t41 97v477h102v-477q0 -99 -70.5 -167.5t-171.5 -68.5q-100 0 -169.5 68.5t-69.5 167.5v477zM419 745l-99 60l-100 -60v78l100 60l99 -60v-78z" />
    <glyph glyph-name="Udieresis" unicode="&#xdc;" horiz-adv-x="621" 
d="M75 700h102v-477q0 -56 40.5 -97t97.5 -41t98 41t41 97v477h102v-477q0 -99 -70.5 -167.5t-171.5 -68.5q-100 0 -169.5 68.5t-69.5 167.5v477zM174 799q0 20 14 34.5t34 14.5q19 0 33.5 -14.5t14.5 -34.5t-14 -34.5t-34 -14.5t-34 14.5t-14 34.5zM361 799q0 20 14 34.5
t34 14.5q19 0 33.5 -14.5t14.5 -34.5t-14 -34.5t-34 -14.5t-34 14.5t-14 34.5z" />
    <glyph glyph-name="Yacute" unicode="&#xdd;" horiz-adv-x="568" 
d="M335 295v-295h-102v295l-216 405h113l154 -304l154 304h113zM234 751l95 130h98l-123 -130h-70z" />
    <glyph glyph-name="Thorn" unicode="&#xde;" horiz-adv-x="585" 
d="M553 381q0 -97 -67.5 -164.5t-163.5 -67.5h-145v-149h-102v700h102v-86h145q96 0 163.5 -68.5t67.5 -164.5zM447 381q0 59 -40.5 101t-98.5 42h-131v-285h131q65 0 102 39t37 103z" />
    <glyph glyph-name="agrave" unicode="&#xe0;" horiz-adv-x="440" 
d="M298 83h-155l-35 -83h-101l213 482l213 -482h-101zM268 168l-48 113l-48 -113h96zM180 657l95 -130h-70l-123 130h98z" />
    <glyph glyph-name="aacute" unicode="&#xe1;" horiz-adv-x="440" 
d="M163 527l95 130h98l-123 -130h-70zM298 83h-155l-35 -83h-101l213 482l213 -482h-101zM268 168l-48 113l-48 -113h96z" />
    <glyph glyph-name="acircumflex" unicode="&#xe2;" horiz-adv-x="440" 
d="M298 83h-155l-35 -83h-101l213 482l213 -482h-101zM268 168l-48 113l-48 -113h96zM320 514l-99 60l-100 -60v78l100 60l99 -60v-78z" />
    <glyph glyph-name="atilde" unicode="&#xe3;" horiz-adv-x="440" 
d="M298 83h-155l-35 -83h-101l213 482l213 -482h-101zM268 168l-48 113l-48 -113h96zM266 545q-16 0 -46.5 10t-46.5 10q-31 0 -46 -31l-50 30q24 67 96 67q19 0 49 -10t44 -10q31 0 46 31l50 -30q-24 -67 -96 -67z" />
    <glyph glyph-name="adieresis" unicode="&#xe4;" horiz-adv-x="440" 
d="M298 83h-155l-35 -83h-101l213 482l213 -482h-101zM268 168l-48 113l-48 -113h96zM79 576q0 20 14 34.5t34 14.5q19 0 33.5 -14.5t14.5 -34.5t-14 -34.5t-34 -14.5t-34 14.5t-14 34.5zM266 576q0 20 14 34.5t34 14.5q19 0 33.5 -14.5t14.5 -34.5t-14 -34.5t-34 -14.5
t-34 14.5t-14 34.5z" />
    <glyph glyph-name="aring" unicode="&#xe5;" horiz-adv-x="440" 
d="M122 620q0 40 28 68.5t69 28.5t69.5 -28.5t28.5 -68.5q0 -41 -28.5 -69.5t-69.5 -28.5t-69 28.5t-28 69.5zM172 619q0 -19 14 -32.5t33 -13.5t33 13.5t14 32.5q0 21 -13.5 34t-33.5 13t-33.5 -13t-13.5 -34zM298 83h-155l-35 -83h-101l213 482l213 -482h-101zM268 168
l-48 113l-48 -113h96z" />
    <glyph glyph-name="ae" unicode="&#xe6;" horiz-adv-x="546" 
d="M8 0l213 470h287v-90h-246l40 -90h196v-88h-156l51 -112h119v-90h-179l-34 83h-155l-35 -83h-101zM269 168l-48 110l-48 -110h96z" />
    <glyph glyph-name="ccedilla" unicode="&#xe7;" horiz-adv-x="385" 
d="M21 233q0 103 73.5 175.5t175.5 72.5q43 0 79 -13v-103q-36 23 -79 23q-63 0 -105.5 -45.5t-42.5 -109.5q0 -71 52 -118l38 56l68 -47l-30 -44q6 -1 20 -1q44 0 79 23v-103q-41 -13 -79 -13q-41 0 -77 12l-69 -102l-68 47l64 93q-46 34 -72.5 85.5t-26.5 111.5z" />
    <glyph glyph-name="egrave" unicode="&#xe8;" 
d="M60 0v470h278v-90h-182v-90h172v-88h-172v-112h186v-90h-282zM189 657l95 -130h-70l-123 130h98z" />
    <glyph glyph-name="eacute" unicode="&#xe9;" 
d="M60 0v470h278v-90h-182v-90h172v-88h-172v-112h186v-90h-282zM151 527l95 130h98l-123 -130h-70z" />
    <glyph glyph-name="ecircumflex" unicode="&#xea;" 
d="M60 0v470h278v-90h-182v-90h172v-88h-172v-112h186v-90h-282zM304 514l-99 60l-100 -60v78l100 60l99 -60v-78z" />
    <glyph glyph-name="edieresis" unicode="&#xeb;" 
d="M60 0v470h278v-90h-182v-90h172v-88h-172v-112h186v-90h-282zM59 576q0 20 14 34.5t34 14.5q19 0 33.5 -14.5t14.5 -34.5t-14 -34.5t-34 -14.5t-34 14.5t-14 34.5zM246 576q0 20 14 34.5t34 14.5q19 0 33.5 -14.5t14.5 -34.5t-14 -34.5t-34 -14.5t-34 14.5t-14 34.5z" />
    <glyph glyph-name="igrave" unicode="&#xec;" horiz-adv-x="216" 
d="M60 0v470h96v-470h-96zM78 657l95 -130h-70l-123 130h98z" />
    <glyph glyph-name="iacute" unicode="&#xed;" horiz-adv-x="216" 
d="M60 0v470h96v-470h-96zM46 527l95 130h98l-123 -130h-70z" />
    <glyph glyph-name="icircumflex" unicode="&#xee;" horiz-adv-x="216" 
d="M60 0v470h96v-470h-96zM209 514l-99 60l-100 -60v78l100 60l99 -60v-78z" />
    <glyph glyph-name="idieresis" unicode="&#xef;" horiz-adv-x="216" 
d="M60 0v470h96v-470h-96zM-33 576q0 20 14 34.5t34 14.5q19 0 33.5 -14.5t14.5 -34.5t-14 -34.5t-34 -14.5t-34 14.5t-14 34.5zM154 576q0 20 14 34.5t34 14.5q19 0 33.5 -14.5t14.5 -34.5t-14 -34.5t-34 -14.5t-34 14.5t-14 34.5z" />
    <glyph glyph-name="eth" unicode="&#xf0;" horiz-adv-x="523" 
d="M12 219v63h48v188h214q95 0 161.5 -68.5t66.5 -165.5q0 -98 -66 -167t-162 -69h-214v219h-48zM156 90h92q64 0 105 42t41 104t-41 104t-105 42h-92v-100h109v-63h-109v-129z" />
    <glyph glyph-name="ntilde" unicode="&#xf1;" horiz-adv-x="499" 
d="M60 0v470h84l205 -240v240h90v-482l-289 347v-335h-90zM302 545q-16 0 -46.5 10t-46.5 10q-31 0 -46 -31l-50 30q24 67 96 67q19 0 49 -10t44 -10q31 0 46 31l50 -30q-24 -67 -96 -67z" />
    <glyph glyph-name="ograve" unicode="&#xf2;" horiz-adv-x="541" 
d="M270 -14q-102 0 -175.5 72.5t-73.5 174.5q0 103 73.5 175.5t175.5 72.5q103 0 176.5 -72.5t73.5 -175.5q0 -102 -73.5 -174.5t-176.5 -72.5zM270 79q63 0 106 45t43 109t-43 109.5t-106 45.5t-105.5 -45.5t-42.5 -109.5t43 -109t105 -45zM248 657l95 -130h-70l-123 130
h98z" />
    <glyph glyph-name="oacute" unicode="&#xf3;" horiz-adv-x="541" 
d="M270 -14q-102 0 -175.5 72.5t-73.5 174.5q0 103 73.5 175.5t175.5 72.5q103 0 176.5 -72.5t73.5 -175.5q0 -102 -73.5 -174.5t-176.5 -72.5zM270 79q63 0 106 45t43 109t-43 109.5t-106 45.5t-105.5 -45.5t-42.5 -109.5t43 -109t105 -45zM206 527l95 130h98l-123 -130
h-70z" />
    <glyph glyph-name="ocircumflex" unicode="&#xf4;" horiz-adv-x="541" 
d="M270 -14q-102 0 -175.5 72.5t-73.5 174.5q0 103 73.5 175.5t175.5 72.5q103 0 176.5 -72.5t73.5 -175.5q0 -102 -73.5 -174.5t-176.5 -72.5zM270 79q63 0 106 45t43 109t-43 109.5t-106 45.5t-105.5 -45.5t-42.5 -109.5t43 -109t105 -45zM370 514l-99 60l-100 -60v78
l100 60l99 -60v-78z" />
    <glyph glyph-name="otilde" unicode="&#xf5;" horiz-adv-x="541" 
d="M270 -14q-102 0 -175.5 72.5t-73.5 174.5q0 103 73.5 175.5t175.5 72.5q103 0 176.5 -72.5t73.5 -175.5q0 -102 -73.5 -174.5t-176.5 -72.5zM270 79q63 0 106 45t43 109t-43 109.5t-106 45.5t-105.5 -45.5t-42.5 -109.5t43 -109t105 -45zM317 545q-16 0 -46.5 10
t-46.5 10q-31 0 -46 -31l-50 30q24 67 96 67q19 0 49 -10t44 -10q31 0 46 31l50 -30q-24 -67 -96 -67z" />
    <glyph glyph-name="odieresis" unicode="&#xf6;" horiz-adv-x="541" 
d="M270 -14q-102 0 -175.5 72.5t-73.5 174.5q0 103 73.5 175.5t175.5 72.5q103 0 176.5 -72.5t73.5 -175.5q0 -102 -73.5 -174.5t-176.5 -72.5zM270 79q63 0 106 45t43 109t-43 109.5t-106 45.5t-105.5 -45.5t-42.5 -109.5t43 -109t105 -45zM129 576q0 20 14 34.5t34 14.5
q19 0 33.5 -14.5t14.5 -34.5t-14 -34.5t-34 -14.5t-34 14.5t-14 34.5zM316 576q0 20 14 34.5t34 14.5q19 0 33.5 -14.5t14.5 -34.5t-14 -34.5t-34 -14.5t-34 14.5t-14 34.5z" />
    <glyph glyph-name="divide" unicode="&#xf7;" horiz-adv-x="512" 
d="M191 90q0 27 19.5 47t46.5 20t46.5 -20t19.5 -47q0 -28 -19.5 -47.5t-46.5 -19.5q-28 0 -47 19.5t-19 47.5zM191 428q0 27 19.5 47t46.5 20t46.5 -20t19.5 -47q0 -28 -19.5 -47.5t-46.5 -19.5q-28 0 -47 19.5t-19 47.5zM0 302h512v-86h-512v86z" />
    <glyph glyph-name="oslash" unicode="&#xf8;" horiz-adv-x="541" 
d="M270 -14q-82 0 -150 50l-67 -70l-32 34l64 68q-64 70 -64 165q0 103 73.5 175.5t175.5 72.5q87 0 154 -53l63 66l33 -34l-61 -65q61 -69 61 -162q0 -102 -73.5 -174.5t-176.5 -72.5zM122 233q0 -53 30 -94l207 219q-39 30 -89 30q-63 0 -105.5 -45.5t-42.5 -109.5z
M270 79q63 0 106 45t43 109q0 51 -28 91l-206 -218q38 -27 85 -27z" />
    <glyph glyph-name="ugrave" unicode="&#xf9;" horiz-adv-x="446" 
d="M228 -13q-70 0 -119 49t-49 119v315h96v-319q0 -30 21 -51t51 -21t51 21t21 51v319h96v-315q0 -70 -49 -119t-119 -49zM214 657l95 -130h-70l-123 130h98z" />
    <glyph glyph-name="uacute" unicode="&#xfa;" horiz-adv-x="446" 
d="M228 -13q-70 0 -119 49t-49 119v315h96v-319q0 -30 21 -51t51 -21t51 21t21 51v319h96v-315q0 -70 -49 -119t-119 -49zM165 527l95 130h98l-123 -130h-70z" />
    <glyph glyph-name="ucircumflex" unicode="&#xfb;" horiz-adv-x="446" 
d="M228 -13q-70 0 -119 49t-49 119v315h96v-319q0 -30 21 -51t51 -21t51 21t21 51v319h96v-315q0 -70 -49 -119t-119 -49zM327 514l-99 60l-100 -60v78l100 60l99 -60v-78z" />
    <glyph glyph-name="udieresis" unicode="&#xfc;" horiz-adv-x="446" 
d="M228 -13q-70 0 -119 49t-49 119v315h96v-319q0 -30 21 -51t51 -21t51 21t21 51v319h96v-315q0 -70 -49 -119t-119 -49zM90 576q0 20 14 34.5t34 14.5q19 0 33.5 -14.5t14.5 -34.5t-14 -34.5t-34 -14.5t-34 14.5t-14 34.5zM277 576q0 20 14 34.5t34 14.5q19 0 33.5 -14.5
t14.5 -34.5t-14 -34.5t-34 -14.5t-34 14.5t-14 34.5z" />
    <glyph glyph-name="yacute" unicode="&#xfd;" horiz-adv-x="432" 
d="M121 470l95 -187l95 187h107l-154 -272v-198h-96v198l-154 272h107zM160 527l95 130h98l-123 -130h-70z" />
    <glyph glyph-name="thorn" unicode="&#xfe;" horiz-adv-x="441" 
d="M422 257q0 -66 -45.5 -114t-109.5 -48h-111v-95h-96v470h96v-57h111q64 0 109.5 -46t45.5 -110zM320 254q0 29 -21 50t-50 21h-93v-142h93q29 0 50 21t21 50z" />
    <glyph glyph-name="ydieresis" unicode="&#xff;" horiz-adv-x="432" 
d="M121 470l95 -187l95 187h107l-154 -272v-198h-96v198l-154 272h107zM75 576q0 20 14 34.5t34 14.5q19 0 33.5 -14.5t14.5 -34.5t-14 -34.5t-34 -14.5t-34 14.5t-14 34.5zM262 576q0 20 14 34.5t34 14.5q19 0 33.5 -14.5t14.5 -34.5t-14 -34.5t-34 -14.5t-34 14.5
t-14 34.5z" />
    <glyph glyph-name="dotlessi" unicode="&#x131;" horiz-adv-x="216" 
d="M60 0v470h96v-470h-96z" />
    <glyph glyph-name="Lslash" unicode="&#x141;" horiz-adv-x="487" 
d="M23 261l-16 59l68 18v362h102v-335l192 52l16 -59l-208 -56v-202h286v-100h-388v275z" />
    <glyph glyph-name="lslash" unicode="&#x142;" 
d="M22 167l-16 59l54 14v230h96v-204l108 30l16 -59l-124 -34v-113h192v-90h-288v177z" />
    <glyph glyph-name="Obreve" unicode="&#x14e;" horiz-adv-x="782" 
d="M32 349q0 151 105 257t254 106t254 -106t105 -257q0 -150 -105 -256t-254 -106t-254 106t-105 256zM142 349q0 -108 73 -185t176 -77t176 77t73 185q0 109 -73 186t-176 77t-176 -77t-73 -186zM391 750q-66 0 -102.5 32t-36.5 94h63q0 -61 76 -61t76 61h63
q0 -62 -36.5 -94t-102.5 -32z" />
    <glyph glyph-name="OE" unicode="&#x152;" horiz-adv-x="1016" 
d="M32 349q0 151 105 257t254 106q49 0 92 -12h481v-98h-315q69 -72 91 -169h210v-96h-201q-5 -139 -98 -237h319v-100h-483q-50 -13 -96 -13q-149 0 -254 106t-105 256zM142 349q0 -108 73 -185t176 -77t176 77t73 185q0 109 -73 186t-176 77t-176 -77t-73 -186z" />
    <glyph glyph-name="oe" unicode="&#x153;" horiz-adv-x="735" 
d="M270 -14q-102 0 -175.5 72.5t-73.5 174.5q0 103 73.5 175.5t175.5 72.5q37 0 73 -11h354v-90h-226q30 -40 42 -90h174v-88h-169q-9 -64 -45 -112h228v-90h-349q-40 -14 -82 -14zM270 79q63 0 106 45t43 109t-43 109.5t-106 45.5t-105.5 -45.5t-42.5 -109.5t43 -109
t105 -45z" />
    <glyph glyph-name="Scaron" unicode="&#x160;" horiz-adv-x="571" 
d="M241 401h103q82 0 140 -58.5t58 -139.5q0 -83 -58.5 -143t-139.5 -60h-271v100h253q45 0 76.5 29t31.5 73q0 45 -31 74t-77 29h-97q-80 0 -137 59.5t-57 140.5t56.5 138t137.5 57h223v-95h-211q-42 0 -72 -30t-30 -72t30 -72t72 -30zM289 829l99 60v-78l-99 -60l-100 60
v78z" />
    <glyph glyph-name="scaron" unicode="&#x161;" horiz-adv-x="393" 
d="M168 286h56q60 0 101.5 -41.5t41.5 -101.5q0 -56 -43.5 -99.5t-99.5 -43.5h-172v86h165q23 0 39.5 16.5t16.5 39.5t-16.5 39.5t-39.5 16.5h-55q-56 0 -96 40t-40 96q0 57 40 96.5t96 39.5h145v-86h-139q-20 0 -34.5 -14.5t-14.5 -34.5t14.5 -34.5t34.5 -14.5zM197 617
l99 60v-78l-99 -60l-100 60v78z" />
    <glyph glyph-name="Ydieresis" unicode="&#x178;" horiz-adv-x="568" 
d="M335 295v-295h-102v295l-216 405h113l154 -304l154 304h113zM143 799q0 20 14 34.5t34 14.5q19 0 33.5 -14.5t14.5 -34.5t-14 -34.5t-34 -14.5t-34 14.5t-14 34.5zM330 799q0 20 14 34.5t34 14.5q19 0 33.5 -14.5t14.5 -34.5t-14 -34.5t-34 -14.5t-34 14.5t-14 34.5z" />
    <glyph glyph-name="Zcaron" unicode="&#x17d;" horiz-adv-x="505" 
d="M470 0h-444l282 602h-244v98h407l-284 -600h283v-100zM273 829l99 60v-78l-99 -60l-100 60v78z" />
    <glyph glyph-name="zcaron" unicode="&#x17e;" horiz-adv-x="433" 
d="M394 0h-379l229 382h-196v88h362l-229 -380h213v-90zM217 617l99 60v-78l-99 -60l-100 60v78z" />
    <glyph glyph-name="florin" unicode="&#x192;" horiz-adv-x="388" 
d="M366 700v-90h-54q-54 0 -84 -32.5t-30 -81.5v-52h130v-84h-130v-436h-98v436h-73v84h73v55q0 86 59.5 143.5t148.5 57.5h58z" />
    <glyph glyph-name="circumflex" unicode="&#x2c6;" horiz-adv-x="362" 
d="M280 514l-99 60l-100 -60v78l100 60l99 -60v-78z" />
    <glyph glyph-name="caron" unicode="&#x2c7;" horiz-adv-x="362" 
d="M181 617l99 60v-78l-99 -60l-100 60v78z" />
    <glyph glyph-name="breve" unicode="&#x2d8;" horiz-adv-x="383" 
d="M192 527q-66 0 -102.5 32t-36.5 94h63q0 -61 76 -61t76 61h63q0 -62 -36.5 -94t-102.5 -32z" />
    <glyph glyph-name="dotaccent" unicode="&#x2d9;" horiz-adv-x="214" 
d="M54 590q0 22 16 38.5t38 16.5t38.5 -16.5t16.5 -38.5q0 -23 -16 -38.5t-39 -15.5q-24 0 -39 15.5t-15 38.5z" />
    <glyph glyph-name="ring" unicode="&#x2da;" horiz-adv-x="300" 
d="M53 620q0 40 28.5 68.5t68.5 28.5q41 0 69.5 -28.5t28.5 -68.5q0 -41 -28.5 -69.5t-69.5 -28.5t-69 28.5t-28 69.5zM103 619q0 -19 14 -32.5t33 -13.5t33 13.5t14 32.5q0 21 -13.5 34t-33.5 13t-33.5 -13t-13.5 -34z" />
    <glyph glyph-name="tilde" unicode="&#x2dc;" horiz-adv-x="359" 
d="M224 545q-16 0 -46.5 10t-46.5 10q-31 0 -46 -31l-50 30q24 67 96 67q19 0 49 -10t44 -10q31 0 46 31l50 -30q-24 -67 -96 -67z" />
    <glyph glyph-name="hungarumlaut" unicode="&#x2dd;" horiz-adv-x="381" 
d="M18 527l95 130h98l-123 -130h-70zM170 527l95 130h98l-123 -130h-70z" />
    <glyph glyph-name="endash" unicode="&#x2013;" horiz-adv-x="640" 
d="M75 210v70h490v-70h-490z" />
    <glyph glyph-name="emdash" unicode="&#x2014;" horiz-adv-x="1131" 
d="M75 280h980v-70h-980v70z" />
    <glyph glyph-name="quoteleft" unicode="&#x2018;" horiz-adv-x="263" 
d="M154 700l66 -214h-62l-115 214h111z" />
    <glyph glyph-name="quoteright" unicode="&#x2019;" horiz-adv-x="263" 
d="M43 486l66 214h111l-115 -214h-62z" />
    <glyph glyph-name="quotesinglbase" unicode="&#x201a;" horiz-adv-x="263" 
d="M43 -114l66 214h111l-115 -214h-62z" />
    <glyph glyph-name="quotedblleft" unicode="&#x201c;" horiz-adv-x="426" 
d="M317 700l66 -214h-62l-115 214h111zM154 700l66 -214h-62l-115 214h111z" />
    <glyph glyph-name="quotedblright" unicode="&#x201d;" horiz-adv-x="426" 
d="M43 486l66 214h111l-115 -214h-62zM206 486l66 214h111l-115 -214h-62z" />
    <glyph glyph-name="quotedblbase" unicode="&#x201e;" horiz-adv-x="426" 
d="M43 -114l66 214h111l-115 -214h-62zM206 -114l66 214h111l-115 -214h-62z" />
    <glyph glyph-name="dagger" unicode="&#x2020;" horiz-adv-x="448" 
d="M28 455h147v245h98v-245h147v-88h-147v-545h-98v545h-147v88z" />
    <glyph glyph-name="daggerdbl" unicode="&#x2021;" horiz-adv-x="448" 
d="M28 455h147v245h98v-245h147v-88h-147v-212h147v-88h-147v-245h-98v245h-147v88h147v212h-147v88z" />
    <glyph glyph-name="bullet" unicode="&#x2022;" horiz-adv-x="387" 
d="M50 256q0 59 42 101t101 42t101 -42t42 -101t-42 -101t-101 -42t-101 42t-42 101z" />
    <glyph glyph-name="perthousand" unicode="&#x2030;" horiz-adv-x="1058" 
d="M519 712l52 -30l-406 -701l-53 29zM83 553q0 -43 29 -72.5t73 -29.5t73.5 29.5t29.5 72.5t-29.5 73t-73.5 30t-73 -30t-29 -73zM25 552q0 67 47 113.5t113 46.5t113.5 -47t47.5 -113q0 -64 -47.5 -110.5t-113.5 -46.5t-113 46t-47 111zM395 145q0 -43 29 -72.5t73 -29.5
t73.5 29.5t29.5 72.5t-29.5 73t-73.5 30t-73 -30t-29 -73zM337 144q0 67 47 113.5t113 46.5t113.5 -47t47.5 -113q0 -64 -47.5 -110.5t-113.5 -46.5t-113 46t-47 111zM769 145q0 -43 29 -72.5t73 -29.5t73.5 29.5t29.5 72.5t-29.5 73t-73.5 30t-73 -30t-29 -73zM711 144
q0 67 47 113.5t113 46.5t113.5 -47t47.5 -113q0 -64 -47.5 -110.5t-113.5 -46.5t-113 46t-47 111z" />
    <glyph glyph-name="guilsinglleft" unicode="&#x2039;" horiz-adv-x="325" 
d="M195 44l-152 207l152 207h86l-151 -207l151 -207h-86z" />
    <glyph glyph-name="guilsinglright" unicode="&#x203a;" horiz-adv-x="325" 
d="M281 251l-152 -207h-86l151 207l-151 207h86z" />
    <glyph glyph-name="fraction" unicode="&#x2044;" horiz-adv-x="314" 
d="M258 793l85 -30l-287 -855l-85 30z" />
    <glyph glyph-name="Euro" unicode="&#x20ac;" horiz-adv-x="603" 
d="M25 237v70h41q-2 26 -2 64h-39v70h50q30 118 126.5 194.5t221.5 76.5q63 0 124 -22v-114q-58 36 -124 36q-81 0 -143.5 -45t-90.5 -126h250v-70h-264q-1 -9 -1 -22q0 -23 3 -42h262v-70h-241q25 -66 88 -108t137 -42q68 0 124 35v-113q-61 -22 -124 -22q-118 0 -212 70
t-130 180h-56z" />
    <glyph glyph-name="trademark" unicode="&#x2122;" horiz-adv-x="514" 
d="M93 458v205h-60v38h162v-38h-59v-205h-43zM346 537l88 168l46 -247h-41l-23 134l-70 -138l-70 138l-23 -134h-41l46 247z" />
    <glyph glyph-name="minus" unicode="&#x2212;" horiz-adv-x="582" 
d="M35 302h512v-86h-512v86z" />
    <glyph glyph-name="notequal" unicode="&#x2260;" horiz-adv-x="512" 
d="M0 427h373l81 81l28 -28l-53 -53h83v-86h-169l-99 -99h268v-86h-353l-73 -73l-28 28l45 45h-103v86h189l98 99h-287v86z" />
    <glyph glyph-name="S.salt" horiz-adv-x="593" 
d="M29 100q74 0 116.5 37.5t59.5 93.5l73 248q29 98 98 159.5t188 61.5v-100q-73 0 -116.5 -38t-59.5 -93l-73 -248q-29 -97 -98.5 -159t-187.5 -62v100z" />
    <glyph glyph-name="T_T" horiz-adv-x="928" 
d="M626 0v602h-324v-602h-102v602h-173v98h874v-98h-173v-602h-102z" />
    <glyph glyph-name="I.salt" horiz-adv-x="252" 
d="M75 0v542h102v-542h-102zM61 648q0 26 19 45t45 19t45 -19t19 -45t-19 -45t-45 -19t-45 19t-19 45z" />
    <glyph glyph-name="hyphen.caps" horiz-adv-x="371" 
d="M52 309v88h266v-88h-266z" />
    <glyph glyph-name="endash.caps" horiz-adv-x="640" 
d="M75 319v70h490v-70h-490z" />
    <glyph glyph-name="emdash.caps" horiz-adv-x="1131" 
d="M75 389h980v-70h-980v70z" />
    <glyph glyph-name="guillemotleft.caps" horiz-adv-x="506" 
d="M195 144l-152 207l152 207h86l-151 -207l151 -207h-86zM376 144l-152 207l152 207h86l-151 -207l151 -207h-86z" />
    <glyph glyph-name="guillemotright.caps" horiz-adv-x="506" 
d="M463 351l-152 -207h-86l151 207l-151 207h86zM282 351l-152 -207h-86l151 207l-151 207h86z" />
    <glyph glyph-name="guilsinglleft.caps" horiz-adv-x="325" 
d="M195 144l-152 207l152 207h86l-151 -207l151 -207h-86z" />
    <glyph glyph-name="guilsinglright.caps" horiz-adv-x="325" 
d="M282 351l-152 -207h-86l151 207l-151 207h86z" />
    <glyph glyph-name="parenleft.caps" horiz-adv-x="295" 
d="M55 355q0 241 74 421h111q-81 -172 -81 -421t81 -421h-111q-74 180 -74 421z" />
    <glyph glyph-name="parenright.caps" horiz-adv-x="295" 
d="M240 355q0 -241 -74 -421h-111q81 172 81 421t-81 421h111q74 -180 74 -421z" />
    <glyph glyph-name="bracketleft.caps" horiz-adv-x="299" 
d="M155 692v-675h90v-84h-190v843h190v-84h-90z" />
    <glyph glyph-name="bracketright.caps" horiz-adv-x="299" 
d="M144 17v675h-90v84h190v-843h-190v84h90z" />
    <glyph glyph-name="braceleft.caps" horiz-adv-x="295" 
d="M124 355q76 -21 76 -141v-166q0 -13 9 -22t22 -9h40v-84h-88q-35 0 -60 25t-25 61v195q0 58 -15.5 81t-59.5 23v74q44 0 59.5 23t15.5 81v195q0 36 25 61t60 25h88v-84h-40q-13 0 -22 -9t-9 -22v-166q0 -120 -76 -141z" />
    <glyph glyph-name="bar.caps" horiz-adv-x="296" 
d="M97 -124v948h101v-948h-101z" />
    <glyph glyph-name="braceright.caps" horiz-adv-x="295" 
d="M171 355q-76 21 -76 141v166q0 13 -9 22t-22 9h-40v84h88q35 0 60 -25t25 -61v-195q0 -58 15.5 -81t59.5 -23v-74q-44 0 -59.5 -23t-15.5 -81v-195q0 -36 -25 -61t-60 -25h-88v84h40q13 0 22 9t9 22v166q0 120 76 141z" />
    <glyph glyph-name="slash.caps" horiz-adv-x="534" 
d="M414 808l83 -37l-378 -870l-82 37z" />
    <glyph glyph-name="backslash.caps" horiz-adv-x="534" 
d="M37 771l83 37l377 -870l-82 -37z" />
    <glyph glyph-name="exclamdown.caps" horiz-adv-x="312" 
d="M116 0v522h90v-522h-90zM95 645q0 28 19 47.5t47 19.5q27 0 46.5 -19.5t19.5 -47.5q0 -27 -19.5 -47t-46.5 -20t-46.5 20t-19.5 47z" />
    <glyph glyph-name="questiondown.caps" horiz-adv-x="565" 
d="M225 525h97q0 -44 -16 -83t-39 -67l-46.5 -54t-39.5 -56.5t-16 -63.5q0 -50 33.5 -84.5t86.5 -34.5q52 0 83 35.5t31 86.5h98q0 -91 -58.5 -154t-153.5 -63q-96 0 -158 61.5t-62 152.5q0 43 16.5 80t40 63.5l47 52t40 58.5t16.5 70zM343 645q0 -27 -19.5 -47t-46.5 -20
t-46.5 20t-19.5 47q0 28 19.5 47.5t46.5 19.5q28 0 47 -19.5t19 -47.5z" />
    <glyph glyph-name="periodcentered.caps" horiz-adv-x="230" 
d="M49 345q0 27 19.5 47t46.5 20t46.5 -20t19.5 -47q0 -28 -19.5 -47.5t-46.5 -19.5q-28 0 -47 19.5t-19 47.5z" />
    <glyph glyph-name="bullet.caps" horiz-adv-x="387" 
d="M50 365q0 59 42 101t101 42t101 -42t42 -101t-42 -101t-101 -42t-101 42t-42 101z" />
    <glyph glyph-name="O.salt" horiz-adv-x="574" 
d="M32 455q0 107 74.5 182t180.5 75t180.5 -75t74.5 -182t-74.5 -182t-180.5 -75t-180.5 75t-74.5 182zM137 455q0 -65 44 -111.5t106 -46.5t106 46.5t44 111.5t-44 111.5t-106 46.5t-106 -46.5t-44 -111.5zM48 0v100h478v-100h-478z" />
    <glyph glyph-name="Odieresis.salt" horiz-adv-x="574" 
d="M32 455q0 107 74.5 182t180.5 75t180.5 -75t74.5 -182t-74.5 -182t-180.5 -75t-180.5 75t-74.5 182zM137 455q0 -65 44 -111.5t106 -46.5t106 46.5t44 111.5t-44 111.5t-106 46.5t-106 -46.5t-44 -111.5zM48 0v100h478v-100h-478zM146 799q0 20 14 34.5t34 14.5
q19 0 33.5 -14.5t14.5 -34.5t-14 -34.5t-34 -14.5t-34 14.5t-14 34.5zM333 799q0 20 14 34.5t34 14.5q19 0 33.5 -14.5t14.5 -34.5t-14 -34.5t-34 -14.5t-34 14.5t-14 34.5z" />
    <glyph glyph-name="Otilde.salt" horiz-adv-x="574" 
d="M32 455q0 107 74.5 182t180.5 75t180.5 -75t74.5 -182t-74.5 -182t-180.5 -75t-180.5 75t-74.5 182zM137 455q0 -65 44 -111.5t106 -46.5t106 46.5t44 111.5t-44 111.5t-106 46.5t-106 -46.5t-44 -111.5zM48 0v100h478v-100h-478zM334 759q-16 0 -46.5 10t-46.5 10
q-31 0 -46 -31l-50 30q24 67 96 67q19 0 49 -10t44 -10q31 0 46 31l50 -30q-24 -67 -96 -67z" />
    <glyph glyph-name="Oacute.salt" horiz-adv-x="574" 
d="M32 455q0 107 74.5 182t180.5 75t180.5 -75t74.5 -182t-74.5 -182t-180.5 -75t-180.5 75t-74.5 182zM137 455q0 -65 44 -111.5t106 -46.5t106 46.5t44 111.5t-44 111.5t-106 46.5t-106 -46.5t-44 -111.5zM48 0v100h478v-100h-478zM216 750l95 130h98l-123 -130h-70z" />
    <glyph glyph-name="Ocircumflex.salt" horiz-adv-x="574" 
d="M32 455q0 107 74.5 182t180.5 75t180.5 -75t74.5 -182t-74.5 -182t-180.5 -75t-180.5 75t-74.5 182zM137 455q0 -65 44 -111.5t106 -46.5t106 46.5t44 111.5t-44 111.5t-106 46.5t-106 -46.5t-44 -111.5zM48 0v100h478v-100h-478zM387 730l-99 60l-100 -60v78l100 60
l99 -60v-78z" />
    <glyph glyph-name="Ograve.salt" horiz-adv-x="574" 
d="M32 455q0 107 74.5 182t180.5 75t180.5 -75t74.5 -182t-74.5 -182t-180.5 -75t-180.5 75t-74.5 182zM137 455q0 -65 44 -111.5t106 -46.5t106 46.5t44 111.5t-44 111.5t-106 46.5t-106 -46.5t-44 -111.5zM48 0v100h478v-100h-478zM262 880l95 -130h-70l-123 130h98z" />
    <glyph glyph-name="L_L" horiz-adv-x="647" 
d="M330 218v482h98v-386h184v-96h-282zM75 0v700h102v-600h296v-100h-398z" />
    <glyph glyph-name="T_H" horiz-adv-x="1063" 
d="M511 0v602h-214v-602h-102v602h-173v98h591v-301h273v301h102v-700h-102v309h-273v-309h-102z" />
    <glyph glyph-name="T_H_E" horiz-adv-x="1338" 
d="M511 0v602h-214v-602h-102v602h-173v98h591v-301h273v301h408v-98h-306v-169h292v-96h-292v-237h312v-100h-414v309h-273v-309h-102z" />
    <glyph glyph-name="D_E" horiz-adv-x="690" 
d="M75 0v700h245q141 0 240 -102.5t99 -247.5q0 -146 -97.5 -248t-241.5 -102h-245zM177 90h131q106 0 175.5 75.5t69.5 184.5t-70 184.5t-175 75.5h-131v-177h227v-96h-227v-247z" />
    <glyph glyph-name="T_E" horiz-adv-x="963" 
d="M511 0v602h-214v-602h-102v602h-173v98h897v-98h-306v-169h292v-96h-292v-237h312v-100h-414z" />
    <glyph glyph-name="H_E" horiz-adv-x="902" 
d="M450 0v309h-273v-309h-102v700h102v-301h273v301h408v-98h-306v-169h292v-96h-292v-237h312v-100h-414z" />
    <glyph glyph-name="T_R" horiz-adv-x="1060" 
d="M884 250q117 -67 117 -221v-29h-104v29q0 64 -44 120t-115 56h-124v-205h-103v602h-214v-602h-102v602h-173v98h716q112 0 187.5 -70.5t75.5 -177.5q0 -70 -35 -124t-82 -78zM895 452q0 62 -42 110t-103 48h-136v-315h136q60 0 102.5 48t42.5 109z" />
    <glyph glyph-name="T_Y" horiz-adv-x="980" 
d="M747 295v-295h-102v295l-164 307h-184v-602h-102v602h-173v98h520l154 -294l154 294h113z" />
    <glyph glyph-name="A.salt" horiz-adv-x="850" 
d="M129 0h-119l415 713l415 -713h-119l-55 96h-481zM615 186l-190 335l-191 -335h381z" />
    <glyph glyph-name="T_W" horiz-adv-x="1225" 
d="M1207 700l-288 -712l-95 234l-95 -234l-249 614h-183v-602h-102v602h-173v98h526l181 -445l41 99l-139 346h107l181 -445l181 445h107z" />
    <glyph glyph-name="ampersand.salt" horiz-adv-x="427" 
d="M340 140h-94l-36 63h-31q-23 0 -40.5 -17.5t-17.5 -41.5q0 -23 17.5 -40.5t40.5 -17.5h221v-86h-235q-59 0 -101.5 42.5t-42.5 101.5q0 60 42.5 102.5t101.5 42.5h4l-98 181h287v-86h-144z" />
    <glyph glyph-name="V.salt" horiz-adv-x="864" 
d="M136 700l296 -521l296 521h119l-415 -713l-415 713h119z" />
    <glyph glyph-name="L_A" horiz-adv-x="744" 
d="M75 0v700h102v-600h296v-100h-398zM491 711l231 -493h-114l-38 87h-158l-38 -87h-114zM491 510l-51 -124h102z" />
    <glyph glyph-name="O_F" horiz-adv-x="910" 
d="M32 456q0 106 74 181t179 75t178.5 -74.5t73.5 -181.5q0 -106 -73.5 -180.5t-178.5 -74.5t-179 74.5t-74 180.5zM136 456q0 -65 44 -111t105 -46t104.5 46t43.5 111t-43.5 111.5t-104.5 46.5q-62 0 -105.5 -46.5t-43.5 -111.5zM48 0v100h819v-100h-819zM608 212v488h272
v-89h-177v-127h168v-87h-168v-185h-95z" />
    <glyph glyph-name="A_N_D" horiz-adv-x="1509" 
d="M330 312h-160l-49 -120h-103l232 519l232 -519h-103zM301 392l-51 129l-51 -129h102zM531 192v508h70l253 -285v285h90v-516l-323 355v-347h-90zM1125 282h83q68 0 116 48t48 116t-48 116t-116 48h-83v-328zM1029 192v508h194q105 0 179.5 -74.5t74.5 -179.5
t-74.5 -179.5t-179.5 -74.5h-194zM18 0v100h1443v-100h-1443z" />
    <glyph glyph-name="C_O" horiz-adv-x="631" 
d="M416 157q-79 0 -136 56.5t-57 135.5q0 80 57 136t136 56q80 0 137 -56t57 -136q0 -79 -57 -135.5t-137 -56.5zM416 237q45 0 76.5 33t31.5 79t-31.5 79t-76.5 33t-76 -33t-31 -79t31 -79t76 -33zM515 122v-113q-61 -22 -124 -22q-149 0 -254 106t-105 256q0 151 105 257
t254 106q63 0 124 -22v-114q-58 36 -124 36q-103 0 -176 -77t-73 -186q0 -108 73 -185t176 -77q68 0 124 35z" />
    <glyph glyph-name="L_E" horiz-adv-x="651" 
d="M75 0v700h102v-600h296v-100h-398zM325 218v482h282v-92h-184v-93h174v-90h-174v-113h188v-94h-286z" />
    <glyph glyph-name="L_I" horiz-adv-x="497" 
d="M330 218v482h98v-482h-98zM75 0v700h102v-600h296v-100h-398z" />
    <glyph glyph-name="L_O" horiz-adv-x="809" 
d="M284 459q0 105 73 179t177 74t177 -74t73 -179t-73 -179t-177 -74t-177 74t-73 179zM386 459q0 -65 43 -111t105 -46t105 46t43 111t-43 111t-105 46t-105 -46t-43 -111zM75 0v700h102v-600h296v-100h-398z" />
    <glyph glyph-name="O_O" horiz-adv-x="1390" 
d="M32 349q0 151 105 257t254 106q94 0 174.5 -46t129.5 -123q48 77 128.5 123t175.5 46q149 0 254 -106t105 -257q0 -150 -105 -256t-254 -106q-95 0 -175.5 45.5t-128.5 123.5q-49 -78 -129.5 -123.5t-174.5 -45.5q-149 0 -254 106t-105 256zM750 349q0 -108 73 -185
t176 -77t176 77t73 185q0 109 -73 186t-176 77t-176 -77t-73 -186zM142 349q0 -108 73 -185t176 -77t176 77t73 185q0 109 -73 186t-176 77t-176 -77t-73 -186z" />
    <glyph glyph-name="Adieresis.salt" horiz-adv-x="850" 
d="M129 0h-119l415 713l415 -713h-119l-55 96h-481zM615 186l-190 335l-191 -335h381zM284 799q0 20 14 34.5t34 14.5q19 0 33.5 -14.5t14.5 -34.5t-14 -34.5t-34 -14.5t-34 14.5t-14 34.5zM471 799q0 20 14 34.5t34 14.5q19 0 33.5 -14.5t14.5 -34.5t-14 -34.5t-34 -14.5
t-34 14.5t-14 34.5z" />
    <glyph glyph-name="Aring.salt" horiz-adv-x="850" 
d="M129 0h-119l415 713l415 -713h-119l-55 96h-481zM615 186l-190 335l-191 -335h381zM328 848q0 40 28 68.5t69 28.5t69.5 -28.5t28.5 -68.5q0 -41 -28.5 -69.5t-69.5 -28.5t-69 28.5t-28 69.5zM378 847q0 -19 14 -32.5t33 -13.5t33 13.5t14 32.5q0 21 -13.5 34t-33.5 13
t-33.5 -13t-13.5 -34z" />
    <glyph glyph-name="Agrave.salt" horiz-adv-x="850" 
d="M129 0h-119l415 713l415 -713h-119l-55 96h-481zM615 186l-190 335l-191 -335h381zM384 880l95 -130h-70l-123 130h98z" />
    <glyph glyph-name="Atilde.salt" horiz-adv-x="850" 
d="M129 0h-119l415 713l415 -713h-119l-55 96h-481zM615 186l-190 335l-191 -335h381zM472 759q-16 0 -46.5 10t-46.5 10q-31 0 -46 -31l-50 30q24 67 96 67q19 0 49 -10t44 -10q31 0 46 31l50 -30q-24 -67 -96 -67z" />
    <glyph glyph-name="Acircumflex.salt" horiz-adv-x="850" 
d="M129 0h-119l415 713l415 -713h-119l-55 96h-481zM615 186l-190 335l-191 -335h381zM525 745l-99 60l-100 -60v78l100 60l99 -60v-78z" />
    <glyph glyph-name="Aacute.salt" horiz-adv-x="850" 
d="M129 0h-119l415 713l415 -713h-119l-55 96h-481zM615 186l-190 335l-191 -335h381zM371 750l95 130h98l-123 -130h-70z" />
    <glyph glyph-name="N_o" horiz-adv-x="1038" 
d="M717 324v54h272v-54h-272zM717 226v54h272v-54h-272zM853 428q-60 0 -101 41.5t-41 100.5q0 60 41 101.5t101 41.5t101 -41.5t41 -101.5q0 -59 -41 -100.5t-101 -41.5zM853 651q-32 0 -54 -24t-22 -57t22 -57t54 -24q31 0 53.5 24t22.5 57t-22.5 57t-53.5 24zM70 0v700
h94l358 -441v441h96v-712l-452 540v-528h-96z" />
    <glyph glyph-name="arrow.right" horiz-adv-x="822" 
d="M587 299h-559v86h558l-240 147l47 81l399 -271l-398 -271l-49 80z" />
    <glyph glyph-name="arrow.left" horiz-adv-x="821" 
d="M792 299h-559l242 -148l-49 -80l-398 271l399 271l47 -81l-240 -147h558v-86z" />
    <glyph glyph-name="arrow.up" horiz-adv-x="603" 
d="M344 559v-559h-86v558l-147 -240l-81 47l271 399l271 -398l-80 -49z" />
    <glyph glyph-name="arrow.down" horiz-adv-x="603" 
d="M344 700v-559l148 242l80 -49l-271 -398l-271 399l81 47l147 -240v558h86z" />
    <glyph glyph-name="ornamentA" horiz-adv-x="466" 
d="M378 352l-145 -144l-145 144l145 145z" />
    <glyph glyph-name="E.salt" horiz-adv-x="537" 
d="M75 0v700h408v-98h-306v-255h292v-96h-292v-151h312v-100h-414z" />
    <glyph glyph-name="Edieresis.salt" horiz-adv-x="537" 
d="M75 0v700h408v-98h-306v-255h292v-96h-292v-151h312v-100h-414zM146 799q0 20 14 34.5t34 14.5q19 0 33.5 -14.5t14.5 -34.5t-14 -34.5t-34 -14.5t-34 14.5t-14 34.5zM333 799q0 20 14 34.5t34 14.5q19 0 33.5 -14.5t14.5 -34.5t-14 -34.5t-34 -14.5t-34 14.5t-14 34.5z
" />
    <glyph glyph-name="Egrave.salt" horiz-adv-x="537" 
d="M75 0v700h408v-98h-306v-255h292v-96h-292v-151h312v-100h-414zM286 880l95 -130h-70l-123 130h98z" />
    <glyph glyph-name="Eacute.salt" horiz-adv-x="537" 
d="M75 0v700h408v-98h-306v-255h292v-96h-292v-151h312v-100h-414zM221 750l95 130h98l-123 -130h-70z" />
    <glyph glyph-name="Ecircumflex.salt" horiz-adv-x="537" 
d="M75 0v700h408v-98h-306v-255h292v-96h-292v-151h312v-100h-414zM392 745l-99 60l-100 -60v78l100 60l99 -60v-78z" />
    <glyph glyph-name="F.salt" horiz-adv-x="537" 
d="M75 0v700h408v-98h-306v-255h292v-96h-292v-251h-102z" />
    <glyph glyph-name="N_N" horiz-adv-x="1140" 
d="M70 0v700h94l358 -441v441h94l358 -441v441h96v-712l-452 540v-540l-452 540v-528h-96z" />
    <glyph glyph-name="L_M" horiz-adv-x="1049" 
d="M75 0v700h102v-600h286v-100h-388zM400 713l234 -491l234 491l132 -713h-106l-69 395l-191 -408l-191 408l-36 -211h-106z" />
    <glyph glyph-name="D_O" horiz-adv-x="1303" 
d="M75 0v700h245q88 0 163.5 -43.5t121.5 -117.5q48 79 129.5 126t177.5 47q149 0 254 -106t105 -257q0 -150 -105 -256t-254 -106q-96 0 -177.5 47t-129.5 126q-45 -74 -120 -117t-165 -43h-245zM663 349q0 -108 73 -185t176 -77t176 77t73 185q0 109 -73 186t-176 77
t-176 -77t-73 -186zM177 90h131q106 0 175.5 75.5t69.5 184.5t-70 184.5t-175 75.5h-131v-520z" />
    <glyph glyph-name="N_T" horiz-adv-x="818" 
d="M70 0v700h94l358 -441v343h-167v98h436v-98h-173v-614l-452 540v-528h-96z" />
    <glyph glyph-name="N_K" horiz-adv-x="1007" 
d="M70 0v700h94l358 -441v441h96v-318l233 318h117l-239 -323l260 -377h-129l-194 293l-48 -65v-240l-452 540v-528h-96z" />
    <glyph glyph-name="o_f" horiz-adv-x="390" 
d="M87 0v321h216v-64h-146v-80h136v-64h-136v-113h-70zM28 542q0 71 49 120.5t119 49.5q69 0 117.5 -49.5t48.5 -120.5q0 -70 -48.5 -119.5t-117.5 -49.5q-70 0 -119 49.5t-49 119.5zM102 542q0 -40 27.5 -68.5t66.5 -28.5q38 0 64.5 28t26.5 69t-26.5 70t-64.5 29
q-39 0 -66.5 -29t-27.5 -70z" />
    <glyph glyph-name="b_y" horiz-adv-x="346" 
d="M108 321l65 -128l65 128h75l-105 -186v-135h-70v135l-105 186h75zM273 550q45 -25 45 -76q0 -38 -30 -66.5t-66 -28.5h-162v321h160q36 0 61.5 -25t25.5 -61t-34 -64zM130 640v-63h71q13 0 22.5 9.5t9.5 22.5t-9.5 22t-22.5 9h-71zM130 441h74q16 0 27 11t11 27t-11 27.5
t-27 11.5h-74v-77z" />
    <glyph glyph-name="o_n" horiz-adv-x="390" 
d="M55 0v321h57l155 -162v162h67v-333l-213 230v-218h-66zM28 542q0 71 49 120.5t119 49.5q69 0 117.5 -49.5t48.5 -120.5q0 -70 -48.5 -119.5t-117.5 -49.5q-70 0 -119 49.5t-49 119.5zM102 542q0 -40 27.5 -68.5t66.5 -28.5q38 0 64.5 28t26.5 69t-26.5 70t-64.5 29
q-39 0 -66.5 -29t-27.5 -70z" />
    <glyph glyph-name="a_t" horiz-adv-x="311" 
d="M209 440h-106l-24 -57h-70l147 330l146 -330h-70zM189 496l-33 79l-34 -79h67zM121 0v257h-85v64h239v-64h-84v-257h-70z" />
    <glyph glyph-name="i_n" horiz-adv-x="389" 
d="M159 380v321h70v-321h-70zM55 0v321h57l155 -162v162h67v-333l-213 230v-218h-66z" />
    <glyph glyph-name="t_o" horiz-adv-x="390" 
d="M160 379v257h-85v64h239v-64h-84v-257h-70zM28 156q0 71 49 120.5t119 49.5q69 0 117.5 -49.5t48.5 -120.5q0 -70 -48.5 -119.5t-117.5 -49.5q-70 0 -119 49.5t-49 119.5zM102 156q0 -40 27.5 -68.5t66.5 -28.5q38 0 64.5 28t26.5 69t-26.5 70t-64.5 29q-39 0 -66.5 -29
t-27.5 -70z" />
    <glyph glyph-name="d_e" 
d="M56 0v321h238v-62h-168v-61h162v-60h-162v-76h171v-62h-241zM126 443h50q40 0 69 28.5t29 68.5t-29 69t-69 29h-50v-195zM56 379v321h137q64 0 109.5 -46.5t45.5 -113.5q0 -66 -45 -113.5t-110 -47.5h-137z" />
    <glyph glyph-name="e_n" horiz-adv-x="379" 
d="M55 0v321h57l145 -159v159h67v-333l-203 230v-218h-66zM82 379v321h216v-62h-146v-61h140v-60h-140v-76h149v-62h-219z" />
    <glyph glyph-name="d_a" horiz-adv-x="390" 
d="M249 57h-106l-24 -57h-70l147 330l146 -330h-70zM229 113l-33 79l-34 -79h67zM127 443h63q40 0 69 28.5t29 68.5t-29 69t-69 29h-63v-195zM57 379v321h150q64 0 109.5 -46.5t45.5 -113.5q0 -66 -45 -113.5t-110 -47.5h-150z" />
    <glyph glyph-name="d_o" horiz-adv-x="390" 
d="M28 155q0 71 49 120.5t119 49.5q69 0 117.5 -49.5t48.5 -120.5q0 -70 -48.5 -119.5t-117.5 -49.5q-70 0 -119 49.5t-49 119.5zM102 155q0 -40 27.5 -68.5t66.5 -28.5q38 0 64.5 28t26.5 69t-26.5 70t-64.5 29q-39 0 -66.5 -29t-27.5 -70zM127 443h63q40 0 69 28.5
t29 68.5t-29 69t-69 29h-63v-195zM57 379v321h150q64 0 109.5 -46.5t45.5 -113.5q0 -66 -45 -113.5t-110 -47.5h-150z" />
    <glyph glyph-name="e_m" horiz-adv-x="382" 
d="M82 379v321h216v-62h-146v-61h140v-60h-140v-76h149v-62h-219zM274 154l-82 -162l-84 162l-30 -154h-61l65 330l110 -213l110 213l63 -330h-61z" />
    <glyph glyph-name="n_o" horiz-adv-x="390" 
d="M55 379v321h57l155 -162v162h67v-333l-213 230v-218h-66zM28 155q0 71 49 120.5t119 49.5q69 0 117.5 -49.5t48.5 -120.5q0 -70 -48.5 -119.5t-117.5 -49.5q-70 0 -119 49.5t-49 119.5zM102 155q0 -40 27.5 -68.5t66.5 -28.5q38 0 64.5 28t26.5 69t-26.5 70t-64.5 29
q-39 0 -66.5 -29t-27.5 -70z" />
    <glyph glyph-name="a_u" horiz-adv-x="311" 
d="M155 -14q-51 0 -87 36t-36 87v211h70v-211q0 -22 15.5 -37.5t37.5 -15.5t37.5 15.5t15.5 37.5v211h70v-211q0 -51 -36 -87t-87 -36zM209 440h-106l-24 -57h-70l147 330l146 -330h-70zM189 496l-33 79l-34 -79h67z" />
    <glyph glyph-name="d_u" 
d="M187 -14q-51 0 -87 36t-36 87v211h70v-211q0 -22 15.5 -37.5t37.5 -15.5t37.5 15.5t15.5 37.5v211h70v-211q0 -51 -36 -87t-87 -36zM126 443h50q40 0 69 28.5t29 68.5t-29 69t-69 29h-50v-195zM56 379v321h137q64 0 109.5 -46.5t45.5 -113.5q0 -66 -45 -113.5t-110 -47.5
h-137z" />
    <glyph glyph-name="L_U" horiz-adv-x="679" 
d="M466 206q-70 0 -120.5 51t-50.5 122v321h98v-325q0 -30 21.5 -51.5t51.5 -21.5q31 0 52.5 21.5t21.5 51.5v325h98v-321q0 -71 -50.5 -122t-121.5 -51zM75 0v700h102v-600h296v-100h-398z" />
    </font>
</defs>
</svg>
